<?xml version="1.0" encoding="utf-8"?>
<!-- Generator: Adobe Illustrator 19.0.0, SVG Export Plug-In . SVG Version: 6.00 Build 0)  -->
<svg version="1.1" xmlns="http://www.w3.org/2000/svg" xmlns:xlink="http://www.w3.org/1999/xlink" x="0px" y="0px"
	 viewBox="0 0 951.5 151.7" style="enable-background:new 0 0 951.5 151.7;" xml:space="preserve">
<style type="text/css">
	.st0{display:none;}
	.st1{display:inline;fill:url(#SVGID_1_);}
	.st2{display:inline;fill:url(#SVGID_2_);}
	.st3{display:inline;fill:url(#SVGID_3_);}
	.st4{display:inline;fill:url(#SVGID_4_);}
	.st5{display:inline;}
	.st6{fill:url(#SVGID_5_);}
	.st7{fill:url(#SVGID_6_);}
	.st8{fill:url(#SVGID_7_);}
	.st9{fill:url(#SVGID_8_);}
	.st10{fill:#8DC73F;}
	.st11{fill:#FFFFFF;}
	.st12{fill:#82BD1E;}
	.st13{fill:#151615;}
	.st14{fill:#EFEF18;}
	.st15{display:none;fill:#646B64;}
	.st16{font-family:'Fontastique-Fontastique';}
	.st17{font-size:414.077px;}
	.st18{letter-spacing:4;}
	.st19{display:inline;fill:#82BD1E;}
	.st20{display:inline;fill:#EFEF18;}
</style>
<g id="Layer_1">
	<g class="st0">
		<linearGradient id="SVGID_1_" gradientUnits="userSpaceOnUse" x1="-79.0327" y1="-513.1951" x2="-30.4012" y2="-513.1951">
			<stop  offset="0" style="stop-color:#009433"/>
			<stop  offset="0.1198" style="stop-color:#21A338"/>
			<stop  offset="0.3459" style="stop-color:#5ABB42"/>
			<stop  offset="0.5549" style="stop-color:#88CF49"/>
			<stop  offset="0.7402" style="stop-color:#A8DD4F"/>
			<stop  offset="0.8949" style="stop-color:#BCE652"/>
			<stop  offset="1" style="stop-color:#C3E953"/>
		</linearGradient>
		<path class="st1" d="M-33.2-547.7l-0.5-2.5c-0.1-0.2-0.1-0.5-0.2-0.7l-3.5-8.3c-0.3-0.9-1.4-0.8-1.7,0.1c0,0.1,0,0.2,0,0.4
			l0.8,8.4l-0.6-0.5c-0.5-0.5-0.9-1.1-1.2-1.8l-2.2-4.9c-0.1-0.2-0.2-0.3-0.3-0.5l-3.4-5.7c-0.8-1.4-2.1-2.3-3.6-2.7
			c-0.8-0.2-1.3,0.8-0.9,1.5l0.7,1.2c0.1,0.3,0.3,0.5,0.4,0.8l5.2,13.1c0.3,0.8,0.5,1.6,0.6,2.5l0.2,1.4c0.1,1-0.8,1.7-1.6,1.3
			l-0.1,0c-0.6-0.3-1.1-0.8-1.5-1.5l-1.1-2.1l-8.2-14.4c-0.7-1.3-1.7-2.3-2.9-3l-0.7-0.4c-0.6-0.4-1.3,0.1-1.3,0.9v0.1
			c0,1.2,0.3,2.5,0.8,3.6l9.5,19.5c0.1,0.1,0.1,0.3,0.1,0.5v1.6c0,0.9-0.9,1.6-1.6,1.2l-0.6-0.3c-0.2-0.1-0.3-0.2-0.4-0.4l-7.3-13
			c-0.1-0.1-0.2-0.2-0.2-0.3l-1.3-1.1c-0.6-0.5-1.5,0.1-1.4,1c0.1,0.8,0.2,1.7,0.3,2.2c0.2,0.9,2.9,11.3,6.2,15.7
			c2.6,3.5,1.2,4.8-2,2.5c-1.7-1.3-3.9-1.5-3.6,0.3c0.1,0.7,2.9,5.3,5.8,10.1c4.5,7.6,7.1,20.8,7.1,29.6c0,16.1-9.7,23.3-12,25.4
			c-7.8,7.2-17.8,4-17.6,3.6C-17.9-440.2-30.7-537.5-33.2-547.7z"/>
		<linearGradient id="SVGID_2_" gradientUnits="userSpaceOnUse" x1="-109.1055" y1="-496.7844" x2="-26.5485" y2="-496.7844">
			<stop  offset="0" style="stop-color:#00ACBF"/>
			<stop  offset="0.1983" style="stop-color:#03ADBD"/>
			<stop  offset="0.345" style="stop-color:#0CB0B8"/>
			<stop  offset="0.4753" style="stop-color:#1CB5AF"/>
			<stop  offset="0.5959" style="stop-color:#33BCA3"/>
			<stop  offset="0.7099" style="stop-color:#50C592"/>
			<stop  offset="0.819" style="stop-color:#74D07F"/>
			<stop  offset="0.9222" style="stop-color:#9EDD67"/>
			<stop  offset="1" style="stop-color:#C3E953"/>
		</linearGradient>
		<path class="st2" d="M-108.9-489.3c0,0,5.5,12.8,16.6,20c13.7,8.8,34.8,10.5,51.5-13c3.6-5.1,16.2-30.4,6.1-70.3
			c0,0,20.7,53-3.8,92.6C-52.8-436.9-113.1-423.5-108.9-489.3z"/>
		
			<linearGradient id="SVGID_3_" gradientUnits="userSpaceOnUse" x1="-117.0429" y1="-501.0386" x2="-183.1807" y2="-386.4846" gradientTransform="matrix(0.9951 9.866261e-002 -9.866261e-002 0.9951 17.3786 -54.3799)">
			<stop  offset="0" style="stop-color:#E93400"/>
			<stop  offset="0.5198" style="stop-color:#D5A038"/>
			<stop  offset="1" style="stop-color:#C4FF6A"/>
		</linearGradient>
		<path class="st3" d="M-100.2-476.5c-2.8-11.5-3.8-27.1,0-44.7c2.2-10.2,4.5-17.9,5.8-25.6c0.5-1.7,5.3-11.1,8-15.8
			c0.8-1.5-2-3-3.3-2.2l-4.1,3.5l-3.3,2.5c-1.2,0.8-2.6-0.6-2.1-2c0.8-2,3.1-6.1,3.8-7.5c0.8-1.4,5.5-10.6,7.5-15.5
			c0.7-1.7-1.3-3.2-2.4-1.7c-3.1,4-9.2,13.9-9.6,14.8c-0.2,0.6-0.7,1.3-1.3,2.1c-1,1.2-2.7,0.3-2.5-1.3c0.3-2.2,1.2-4.9,1.7-5.8
			c0.9-1.8,6.8-15.7,7.3-16.7c0,0,0-0.1,0-0.1l0.8-2.2c0.6-1.5-2-2.9-3.1-1.9l-1.2,1.4c-0.2,0.2-1.1,1.4-1.2,1.6l-9.3,19.6
			c-0.2,0.4-1.4,2.1-1.7,2.3l-0.8,0.5c-0.4,0.3-0.9-0.1-0.8-0.7l1.4-5.2c0,0,0-0.1,0-0.1l5.5-14.5c0-0.1,0.1-0.4,0.1-0.5l0.1-1
			c0.2-1.2-1.1-2-1.9-1.2l-0.6,0.5c-0.1,0.1-0.2,0.2-0.3,0.3c-1.1,1.8-8.7,16.5-8.9,17.2c-0.5,1.2-1.7,4.5-3.4,5
			c-0.2,0.1-0.9,0-1.1-0.3c-0.9-0.7-0.5-1.9-0.2-2.5l3.6-6.4l1.4-2.3c0.3-1.6-1.9-2.2-2.9-1c-2,2.4-6.4,7.2-7.8,11.2
			c0,0-30.1,73.5,0.7,114.2c16.5,21.8,58.4,23.4,79.7,7C-56-444.4-92.3-444.2-100.2-476.5z"/>
		<linearGradient id="SVGID_4_" gradientUnits="userSpaceOnUse" x1="-40.8123" y1="-470.1921" x2="-140.1158" y2="-470.1921">
			<stop  offset="0" style="stop-color:#E93400"/>
			<stop  offset="4.448855e-002" style="stop-color:#E74006"/>
			<stop  offset="0.3032" style="stop-color:#DB8329"/>
			<stop  offset="0.5373" style="stop-color:#D1B945"/>
			<stop  offset="0.7387" style="stop-color:#CADF59"/>
			<stop  offset="0.8997" style="stop-color:#C6F666"/>
			<stop  offset="1" style="stop-color:#C4FF6A"/>
		</linearGradient>
		<path class="st4" d="M-140.1-500.2c0,0,10.1,39.9,38.3,51c30.5,12,49.8,3.1,61-7.6c0,0-28.1,30.8-72.4,8.7
			C-131.3-457.2-138.6-473.1-140.1-500.2z"/>
	</g>
	<g class="st0">
		<g class="st5">
			<linearGradient id="SVGID_5_" gradientUnits="userSpaceOnUse" x1="-247.1179" y1="-252.4065" x2="-150.8835" y2="-252.4065">
				<stop  offset="0" style="stop-color:#009433"/>
				<stop  offset="0.1198" style="stop-color:#21A338"/>
				<stop  offset="0.3459" style="stop-color:#5ABB42"/>
				<stop  offset="0.5549" style="stop-color:#88CF49"/>
				<stop  offset="0.7402" style="stop-color:#A8DD4F"/>
				<stop  offset="0.8949" style="stop-color:#BCE652"/>
				<stop  offset="1" style="stop-color:#C3E953"/>
			</linearGradient>
			<path class="st6" d="M-156.4-320.8l-1-5c-0.1-0.5-0.2-0.9-0.4-1.4l-6.9-16.4c-0.6-1.7-2.9-1.6-3.3,0.2c-0.1,0.2-0.1,0.5-0.1,0.7
				l1.5,16.5l-1.2-1.1c-0.9-1-1.7-2.2-2.3-3.5l-4.4-9.6c-0.2-0.3-0.3-0.6-0.5-1l-6.8-11.3c-1.6-2.7-4.2-4.6-7-5.3
				c-1.5-0.3-2.7,1.5-1.8,3l1.4,2.4c0.3,0.5,0.5,1,0.8,1.6l10.3,26c0.6,1.6,1,3.2,1.3,4.9l0.3,2.9c0.2,1.9-1.5,3.4-3.1,2.6l-0.2-0.1
				c-1.2-0.6-2.3-1.6-2.9-2.9l-2.2-4.2l-16.2-28.5c-1.4-2.5-3.4-4.6-5.7-6l-1.4-0.9c-1.2-0.7-2.6,0.2-2.6,1.7v0.2
				c0,2.5,0.5,4.9,1.6,7l18.8,38.6c0.1,0.3,0.2,0.6,0.2,0.9v3.1c0,1.8-1.7,3.1-3.2,2.3l-1.3-0.6c-0.3-0.2-0.6-0.4-0.8-0.8
				l-14.4-25.8c-0.2-0.2-0.3-0.4-0.5-0.6l-2.7-2.1c-1.3-1-3,0.2-2.8,1.9c0.2,1.7,0.5,3.4,0.7,4.4c0.4,1.8,5.8,22.3,12.4,31
				c5.2,6.9,2.4,9.5-3.9,4.9c-3.4-2.5-7.8-3-7.2,0.6c0.2,1.4,5.7,10.5,11.4,20.1c9,14.9,14.1,41.2,14.1,58.6
				c0,31.9-19.3,46.1-23.8,50.3c-15.4,14.3-35.2,7.8-34.9,7.2C-126.1-108-151.6-300.5-156.4-320.8z"/>
			<linearGradient id="SVGID_6_" gradientUnits="userSpaceOnUse" x1="-306.6273" y1="-219.9321" x2="-143.2596" y2="-219.9321">
				<stop  offset="0" style="stop-color:#00ACBF"/>
				<stop  offset="0.1983" style="stop-color:#03ADBD"/>
				<stop  offset="0.345" style="stop-color:#0CB0B8"/>
				<stop  offset="0.4753" style="stop-color:#1CB5AF"/>
				<stop  offset="0.5959" style="stop-color:#33BCA3"/>
				<stop  offset="0.7099" style="stop-color:#50C592"/>
				<stop  offset="0.819" style="stop-color:#74D07F"/>
				<stop  offset="0.9222" style="stop-color:#9EDD67"/>
				<stop  offset="1" style="stop-color:#C3E953"/>
			</linearGradient>
			<path class="st7" d="M-306.2-205.2c0,0,10.8,25.4,32.9,39.6c27.1,17.4,68.8,20.8,101.8-25.6c7.2-10.1,32-60.1,12.1-139
				c0,0,40.9,104.9-7.6,183.2C-195.2-101.5-314.5-75-306.2-205.2z"/>
			
				<linearGradient id="SVGID_7_" gradientUnits="userSpaceOnUse" x1="-234.9231" y1="-277.7712" x2="-365.7997" y2="-51.0862" gradientTransform="matrix(0.9951 9.866261e-002 -9.866261e-002 0.9951 17.3786 -54.3799)">
				<stop  offset="0" style="stop-color:#E93400"/>
				<stop  offset="0.5198" style="stop-color:#D5A038"/>
				<stop  offset="1" style="stop-color:#C4FF6A"/>
			</linearGradient>
			<path class="st8" d="M-288.9-179.9c-5.5-22.8-7.6-53.6-0.1-88.5c4.4-20.2,8.8-35.5,11.5-50.7c0.9-3.5,10.6-22.1,15.7-31.3
				c1.6-2.9-3.9-6-6.5-4.3l-8,6.9l-6.5,5c-2.4,1.5-5.2-1.2-4.1-4c1.5-4,6-12.1,7.6-14.8c1.6-2.8,10.9-21,14.9-30.7
				c1.4-3.4-2.6-6.3-4.8-3.4c-6.1,7.9-18.3,27.4-19,29.3c-0.4,1.2-1.4,2.7-2.6,4.1c-1.9,2.4-5.4,0.5-5-2.6c0.5-4.4,2.4-9.6,3.3-11.5
				c1.8-3.7,13.5-31.1,14.4-33.1c0-0.1,0.1-0.1,0.1-0.2l1.6-4.4c1.1-3-3.9-5.7-6.2-3.8l-2.5,2.7c-0.4,0.3-2.2,2.8-2.4,3.2
				l-18.5,38.8c-0.3,0.7-2.7,4.2-3.3,4.5l-1.6,1c-0.8,0.5-1.8-0.3-1.7-1.3l2.8-10.2c0-0.1,0.1-0.2,0.1-0.3l11-28.7
				c0.1-0.3,0.2-0.8,0.3-1l0.3-1.9c0.3-2.3-2.1-3.9-3.7-2.4l-1.1,1c-0.2,0.2-0.4,0.4-0.6,0.7c-2.2,3.6-17.2,32.6-17.7,34
				c-0.9,2.4-3.4,8.9-6.7,9.8c-0.4,0.1-1.7-0.1-2.2-0.5c-1.7-1.5-1-3.8-0.4-5l7.2-12.6l2.7-4.6c0.7-3.2-3.7-4.4-5.7-2
				c-3.9,4.7-12.6,14.3-15.4,22.2c0,0-59.6,145.4,1.4,226c32.7,43.2,115.5,46.4,157.7,13.8C-201.6-116.2-273.4-115.8-288.9-179.9z"
				/>
			<linearGradient id="SVGID_8_" gradientUnits="userSpaceOnUse" x1="-171.4854" y1="-167.3101" x2="-367.9921" y2="-167.3101">
				<stop  offset="0" style="stop-color:#E93400"/>
				<stop  offset="4.448855e-002" style="stop-color:#E74006"/>
				<stop  offset="0.3032" style="stop-color:#DB8329"/>
				<stop  offset="0.5373" style="stop-color:#D1B945"/>
				<stop  offset="0.7387" style="stop-color:#CADF59"/>
				<stop  offset="0.8997" style="stop-color:#C6F666"/>
				<stop  offset="1" style="stop-color:#C4FF6A"/>
			</linearGradient>
			<path class="st9" d="M-368-226.8c0,0,20,78.9,75.7,100.9c60.3,23.8,98.6,6.2,120.8-15c0,0-55.6,60.9-143.3,17.2
				C-350.6-141.5-365-173.1-368-226.8z"/>
		</g>
		<g class="st5">
			<circle class="st10" cx="-234.4" cy="210.2" r="156.5"/>
			<path class="st11" d="M-268.6,359.5V243c0-3.8-2-7.2-5.3-9.1l-60.7-33.8l0,0c-7.3-0.2-12.4,7.1-9.7,13.9v0
				c0.1,0.2,0.3,0.4,0.5,0.6c0,0,50.6,29.4,50.7,29.8c4.5,12.4-2.6,20.7-14.6,17.1c-0.6-0.2-48.3-29-48.3-29s-10.1-7.1-11.8-17
				c-1.4-7.9-0.2-13,2.4-18.8l5.3-8.9l5-4.5c7.7-4.4,19.1-5.8,27.7-3.3l10.5,5.1l62.6,36.9c3.4,2,5.5,5.7,5.5,9.6V366v23.4h-22.5
				L-268.6,359.5z"/>
			<path class="st11" d="M-203.4,359.5V243c0-3.8,2-7.2,5.3-9.1l60.7-33.8h0c7.3-0.2,12.4,7.1,9.7,13.9l0,0
				c-0.1,0.2-0.3,0.4-0.5,0.6c0,0-50.6,29.4-50.7,29.8c-4.5,12.4,2.6,20.7,14.6,17.1c0.6-0.2,48.3-29,48.3-29s10.1-7.1,11.8-17
				c1.4-7.9,0.2-13-2.4-18.8l-5.3-8.9l-5-4.5c-7.7-4.4-19.1-5.8-27.7-3.3l-10.5,5.1l-62.6,36.9c-3.4,2-5.5,5.7-5.5,9.6V366v23.4
				h22.5L-203.4,359.5z"/>
			<path class="st11" d="M-144.3,127.9l-4.6-7.7l-4.3-3.9c-6.7-3.8-16.6-5-24-2.9l-9.1,4.4l-50.2,29.6l-50.2-29.6l-9.1-4.4
				c-7.4-2.1-17.3-1-24,2.9l-4.3,3.9l-4.6,7.7c-2.3,5-3.2,9.4-2.1,16.3c1.5,8.6,10.2,14.7,10.2,14.7s41.3,25,41.8,25.1
				c10.4,3.1,16.5-4.1,12.6-14.8c-0.1-0.4-43.9-25.8-43.9-25.8c-0.2-0.1-0.3-0.3-0.4-0.5c-2.4-5.9,2.1-12.2,8.4-12h0l52.6,29.3
				c1.9,1.1,3.4,2.8,4.1,4.9v17.2v21.3l8.8,7.1l8.8-7.1v-21.3V165c0.7-2,2.1-3.8,4.1-4.9l52.6-29.3h0c6.3-0.2,10.7,6.2,8.4,12
				c-0.1,0.2-0.2,0.4-0.4,0.5c0,0-43.8,25.4-43.9,25.8c-3.9,10.7,2.2,17.9,12.6,14.8c0.5-0.1,41.8-25.1,41.8-25.1s8.7-6.1,10.2-14.7
				C-141.1,137.4-142.1,132.9-144.3,127.9z"/>
		</g>
		<text transform="matrix(1 0 0 1 -357.2338 -56.8155)" class="st5" style="font-family:'MyriadPro-Bold'; font-size:34.3126px;">G R O  F R E S H</text>
	</g>
	<g class="st0">
		<g class="st5">
			<path class="st12" d="M-577.1-439h91c8.8,0,16,7,16.3,15.8l3.2,105.1c0.2,5.3-4.1,9.6-9.3,9.6l0,0l-4.5-114
				c-0.1-3.5-3-6.3-6.5-6.3l-89.9-0.2c-3.6,0-6.6,2.9-6.6,6.5l-1.1,97.8c0,3.4,2.7,6.3,6.2,6.3h80.2l9.8,10h-91.9
				c-8,0-14.4-6.4-14.4-14.4v-98.6C-594.6-431.2-586.8-439-577.1-439z"/>
			<path class="st12" d="M-529.7-483h-0.2h-1.6h-0.2c-14.1,0-25.6,9.3-25.6,24.6v0v37.1c0,2.9,2.2,5.3,4.9,5.3
				c2.9,0,5.2-2.5,5.2-5.6v-35c0-8.8,6.5-15.8,14.6-15.8h1.1h1.6h1.1c8,0,14.6,7.1,14.6,15.8v35c0,3.1,2.3,5.6,5.2,5.6
				c2.7,0,4.9-2.4,4.9-5.3v-37.1v0C-504.1-473.7-515.5-483-529.7-483z"/>
			<path class="st12" d="M-488.4-308.4c0,0,6.8-77.9-73.3-72.8c-13,0.8-19.7,5.8-18.3,9.9c6.1,18.6,37.6,33.9,62.3,23.2
				c0,0-17.7-17-29.7-16.3l14.2,11.7c0,0-30,0.6-36.3-17.6c2.1-3.4,63.8-17.9,71.4,51.9L-488.4-308.4z"/>
			<path class="st12" d="M-534-414c0,0-6,32.6,17.2,35.3C-516.8-378.7-503.5-400.7-534-414z M-519.5-384.3
				c-12.6-1.4-9.8-20.8-9.8-20.8C-512.7-397.8-519.5-384.3-519.5-384.3z"/>
		</g>
		
			<text transform="matrix(1 0 0 1 -452.6063 -363.7785)" style="display:inline;fill:#646B64; font-family:'Arial-BoldMT'; font-size:39.7268px;">Gro</text>
		
			<text transform="matrix(1 0 0 1 -353.8871 -363.7785)" style="display:inline;fill:#646B64; font-family:'Arial-BoldMT'; font-size:39.7268px;">Fresh</text>
		
			<text transform="matrix(1 0 0 1 -374.8871 -363.7785)" style="display:inline;fill:#646B64; font-family:'Arial-BoldMT'; font-size:39.7268px;">-</text>
	</g>
	<g>
		<path class="st13" d="M68.4,0.1c17,0,31.9,4.3,44.2,12.9c11.2,9.1,17.5,21.8,18.6,38.4h-18.6c-5.4,0-9.7-2.6-13.2-7.6
			c-5.8-11.9-16-17.7-30.2-17.7c-25.2,0-38.2,16-38.4,48.1s12.9,49.4,39.9,51.3c20.3,0,32.1-13.6,35.4-31.3H88.5
			c-8.4,0-15.1-6.7-15.1-15.1V70h59.8v79.2h-7.6c-7.1,0-14-4.7-14.7-11.4l-1.3-7.1c-10.4,13.4-20.9,20.7-42.1,20.7
			C25.5,151.3,0,118.7,0,75.8C-0.6,32.4,25-1.7,68.4,0.1z"/>
		<path class="st13" d="M147.4,90.2C148.2,53.4,167.9,35,206,35h4.1v29.8h-9.7c-16,0-23.9,8.4-23.9,25v59.3h-29.1V90.2z"/>
		<path class="st13" d="M326.4,92.6c0,39.3-17.5,59.1-52,59.1c-34.5,0-51.8-19.8-51.8-59.1c0-39.7,17.3-59.3,51.8-59.3
			C309,33.3,326.4,52.9,326.4,92.6z M251.8,92.6c0.2,22.2,7.8,33.4,22.4,33.4s22-11.6,22.2-34.3c0-22.2-7.3-33.2-22-33.2
			C259.3,58.5,251.8,70,251.8,92.6z"/>
		<path class="st14" d="M350.4,99.2V69.8h55.8v29.4H350.4z"/>
		<path class="st13" d="M504.4,84.2h-41.6v64.9h-29.6v-131c0-8.4,6.7-15.7,15.1-15.7h91v25.5h-76.6v31.5h57.4v9.7
			C520.1,77.5,512.8,84.2,504.4,84.2z"/>
		<path class="st13" d="M543.8,90.2c0.9-36.9,20.5-55.2,58.7-55.2h4.1v29.8h-9.7c-16,0-23.9,8.4-23.9,25v59.3h-29.1V90.2z"/>
		<path class="st13" d="M670.9,151.7c-34.5-1.1-51.8-21.1-51.8-60s17.5-58.3,52.2-58.5c36.2,0,53.3,22.2,51.1,66.9h-73.8
			c1.1,17.5,8.6,26.3,22.7,26.3c6.7,0,12.9-2.8,18.6-8.2c2.6-2.8,5.8-4.1,9.7-4.1h21.1C714.5,138.4,699,151.7,670.9,151.7z
			 M649.1,79.7h42.9c-1.7-15.1-8.8-22.9-21.1-22.9C658.6,56.8,651.3,64.6,649.1,79.7z"/>
		<path class="st13" d="M785.7,128.4c12.1,0,18.1-3.5,18.1-10.8c0-5.8-9.9-10.6-29.6-14C749,99.1,736.1,87.9,735.9,70
			c0-24.6,19.4-36.2,45.5-36.7c14.7,0,26.3,3.2,35,9.7c8.4,6.7,12.9,16,13.6,27.8h-18.1c-6.7-0.2-11-2.6-12.7-7.1
			c-1.9-5-7.8-7.8-17.3-7.8c-11.2,0-16.8,3-16.8,8.8c0,5.8,7.3,10.4,22.2,13.2c19.4,3.9,32.1,8.8,38.4,14.7c5.4,5.6,8,12.5,8,20.3
			c0,28-22,38.4-52.2,38.4c-16,0-28-3.5-35.8-10.1c-8.6-6.5-12.9-16.4-12.9-29.6H762C762.6,124.1,771.7,128.4,785.7,128.4z"/>
		<path class="st13" d="M899.2,59c-17,0-24.4,14.2-24.4,31.7v58.5h-28.7V2.4h14.5c9.5,0,14.2,5,14.2,14.5V51
			c14.7-16.8,32.6-21.6,53.9-14c16,5.8,23.5,21.1,22.7,46v66.2h-28.5V90.7C922.9,71.5,915.6,59,899.2,59z"/>
	</g>
	<g class="st0">
		
			<text transform="matrix(1 0 0 1 -508.2124 360.3891)" style="display:inline;fill:#646B64; font-family:'Arial-BoldMT'; font-size:69.5486px; letter-spacing:1;">-</text>
		<g class="st5">
			<path class="st12" d="M-634.5,245.1h91c8.8,0,16,7,16.3,15.8L-524,366c0.2,5.3-4.1,9.6-9.3,9.6l0,0l-4.5-114
				c-0.1-3.5-3-6.3-6.5-6.3l-89.9-0.2c-3.6,0-6.6,2.9-6.6,6.5l-1.1,97.8c0,3.4,2.7,6.3,6.2,6.3h80.2l9.8,10h-91.9
				c-8,0-14.4-6.4-14.4-14.4v-98.6C-652,252.9-644.2,245.1-634.5,245.1z"/>
			<path class="st12" d="M-587.1,201.1h-0.2h-1.6h-0.2c-14.1,0-25.6,9.3-25.6,24.6v0v37.1c0,2.9,2.2,5.3,4.9,5.3
				c2.9,0,5.2-2.5,5.2-5.6v-35c0-8.8,6.5-15.8,14.6-15.8h1.1h1.6h1.1c8,0,14.6,7.1,14.6,15.8v35c0,3.1,2.3,5.6,5.2,5.6
				c2.7,0,4.9-2.4,4.9-5.3v-37.1v0C-561.5,210.4-572.9,201.1-587.1,201.1z"/>
			<path class="st12" d="M-545.8,375.6c0,0,6.8-77.9-73.3-72.8c-13,0.8-19.7,5.8-18.3,9.9c6.1,18.6,37.6,33.9,62.3,23.2
				c0,0-17.7-17-29.7-16.3l14.2,11.7c0,0-30,0.6-36.3-17.6c2.1-3.4,63.8-17.9,71.4,51.9L-545.8,375.6z"/>
			<path class="st12" d="M-591.3,270.1c0,0-6,32.6,17.2,35.3C-574.2,305.3-560.9,283.4-591.3,270.1z M-576.9,299.7
				c-12.6-1.4-9.8-20.8-9.8-20.8C-570.1,286.2-576.9,299.7-576.9,299.7z"/>
		</g>
		
			<text transform="matrix(1 0 0 1 -508.2124 302.6157)" style="display:inline;fill:#646B64; font-family:'Arial-BoldMT'; font-size:69.5486px; letter-spacing:-3;">Gro</text>
		
			<text transform="matrix(1 0 0 1 -484.8447 363.8911)" style="display:inline;fill:#646B64; font-family:'Arial-BoldMT'; font-size:69.5486px; letter-spacing:-3;">Fresh</text>
		
			<text transform="matrix(1 0 0 1 -325.1089 583.5231)" style="display:inline;fill:#646B64; font-family:'Arial-BoldMT'; font-size:111.1343px; letter-spacing:1;">-</text>
		<g class="st5">
			<path class="st12" d="M-634.5,478.9h91c8.8,0,16,7,16.3,15.8l3.2,105.1c0.2,5.3-4.1,9.6-9.3,9.6l0,0l-4.5-114
				c-0.1-3.5-3-6.3-6.5-6.3l-89.9-0.2c-3.6,0-6.6,2.9-6.6,6.5l-1.1,97.8c0,3.4,2.7,6.3,6.2,6.3h80.2l9.8,10h-91.9
				c-8,0-14.4-6.4-14.4-14.4v-98.6C-652,486.7-644.2,478.9-634.5,478.9z"/>
			<path class="st12" d="M-587.1,434.9h-0.2h-1.6h-0.2c-14.1,0-25.6,9.3-25.6,24.6v0v37.1c0,2.9,2.2,5.3,4.9,5.3
				c2.9,0,5.2-2.5,5.2-5.6v-35c0-8.8,6.5-15.8,14.6-15.8h1.1h1.6h1.1c8,0,14.6,7.1,14.6,15.8v35c0,3.1,2.3,5.6,5.2,5.6
				c2.7,0,4.9-2.4,4.9-5.3v-37.1v0C-561.5,444.2-572.9,434.9-587.1,434.9z"/>
			<path class="st12" d="M-545.8,609.4c0,0,6.8-77.9-73.3-72.8c-13,0.8-19.7,5.8-18.3,9.9c6.1,18.6,37.6,33.9,62.3,23.2
				c0,0-17.7-17-29.7-16.3l14.2,11.7c0,0-30,0.6-36.3-17.6c2.1-3.4,63.8-17.9,71.4,51.9L-545.8,609.4z"/>
			<path class="st12" d="M-591.3,503.9c0,0-6,32.6,17.2,35.3C-574.2,539.1-560.9,517.2-591.3,503.9z M-576.9,533.6
				c-12.6-1.4-9.8-20.8-9.8-20.8C-570.1,520.1-576.9,533.6-576.9,533.6z"/>
		</g>
		
			<text transform="matrix(1 0 0 1 -498.312 586.3219)" style="display:inline;fill:#646B64; font-family:'RaspoutineMedium'; font-size:111.1343px; letter-spacing:1;">Gro</text>
		
			<text transform="matrix(1 0 0 1 -287.7681 589.1188)" style="display:inline;fill:#646B64; font-family:'RaspoutineMedium'; font-size:111.1343px; letter-spacing:1;">Fresh</text>
	</g>
	<text transform="matrix(1 0 0 1 642.7799 163.9769)" class="st15 st16 st17 st18">-</text>
	<g class="st0">
		<path class="st19" d="M-468.7-217.9h325.6c31.5,0,57.3,25,58.2,56.5l11.3,376c0.6,18.9-14.6,34.4-33.4,34.4h0l-16.2-407.9
			c-0.5-12.5-10.8-22.4-23.3-22.4L-468-182c-12.9,0-23.4,10.4-23.6,23.3l-3.8,349.6c-0.1,12.3,9.8,22.4,22.2,22.4h286.9l34.9,35.8
			h-328.5c-28.4,0-51.5-23.1-51.5-51.5v-352.8C-531.4-189.8-503.3-217.9-468.7-217.9z"/>
		<path class="st19" d="M-299.1-375.1h-0.6h-5.8h-0.6c-50.6,0-91.6,33.1-91.6,88.1v0v132.6c0,10.5,7.9,19.1,17.5,19.1
			c10.2,0,18.5-9,18.5-20.1v-125.2c0-31.3,23.3-56.7,52.1-56.7h4h5.8h4c28.8,0,52.1,25.4,52.1,56.7v125.2c0,11.1,8.3,20.1,18.5,20.1
			c9.7,0,17.5-8.5,17.5-19.1V-287v0C-207.5-342-248.5-375.1-299.1-375.1z"/>
		<path class="st19" d="M-151.4,249c0,0,24.2-278.4-262.1-260.2c-46.5,3-70.5,20.6-65.6,35.4c22,66.6,134.6,121.4,222.8,83.1
			c0,0-63.5-60.9-106.1-58.4l50.7,41.7c0,0-107.4,2.1-129.9-63c7.6-12,228-64,255.3,185.7L-151.4,249z"/>
		<path class="st19" d="M-314.4-128.5c0,0-21.3,116.7,61.3,126.1C-253-2.4-205.3-80.8-314.4-128.5z M-262.6-22.4
			c-45-5.1-35.2-74.2-35.2-74.2C-238.4-70.6-262.6-22.4-262.6-22.4z"/>
	</g>
	<text transform="matrix(1 0 0 1 28.7115 163.9837)" class="st15 st16 st17 st18">Gro</text>
	<text transform="matrix(1 0 0 1 823.5992 174.4037)" class="st15 st16 st17 st18">Fresh</text>
</g>
<g id="Layer_2" class="st0">
	<path class="st19" d="M80.7-84.5c-0.2-8.1-6.8-14.4-14.8-14.4h-76.3c-8.8,0-15.9,7.1-15.9,15.9v82.6c0,7.3,6,13.3,13.3,13.3h76.9
		c0.5,0,0.9-0.3,1.1-0.7c0.2-0.4,0.1-1-0.2-1.3l-8.2-8.4c-0.2-0.2-0.5-0.4-0.9-0.4h-67.2c-1.1,0-2.1-0.4-2.8-1.2
		c-0.8-0.8-1.2-1.8-1.2-2.8l0.9-81.9c0-2.3,2-4.3,4.3-4.3c0,0,0,0,0,0l75.3,0.2c2.3,0,4.2,1.8,4.3,4.1l3.8,95.5
		c0,0.6,0.6,1.2,1.2,1.2c2.5,0,4.8-1,6.5-2.7c1.7-1.8,2.6-4.1,2.5-6.6L80.7-84.5z"/>
	<path class="st19" d="M29.3-135.7h-1.6c-13.3,0-22.7,9-22.7,21.8v31.1c0,3.1,2.4,5.7,5.3,5.7c3.1,0,5.5-2.7,5.5-5.9v-29.3
		c0-6.7,4.9-12.1,11-12.1h3.2c6.1,0,11,5.4,11,12.1V-83c0,3.3,2.5,5.9,5.5,5.9c2.9,0,5.3-2.5,5.3-5.7v-31.1
		C52-126.7,42.7-135.7,29.3-135.7z"/>
	<path class="st19" d="M64.1-5c-1.5-8.7-5.2-21.1-14.6-30.7c-10.8-11.1-26.7-16-47.1-14.7c-7.7,0.5-13.6,2.7-15.8,6
		c-0.9,1.3-1.1,2.6-0.7,3.9c2.5,7.6,9.8,14.7,19.6,19.1c11.5,5.1,24,5.5,34.2,1.1c0.4-0.2,0.6-0.5,0.7-0.9c0.1-0.4-0.1-0.8-0.4-1.1
		C39.6-23,24.8-37,14.4-36.4c-0.5,0-0.9,0.4-1.1,0.8c-0.2,0.5,0,1,0.4,1.3l9.1,7.5c-6.7-0.5-21.2-2.8-25.5-13
		c3-1.5,16.8-4.3,29.8,0.6c15.5,5.9,24.9,20.6,27.3,42.6c0,0.3,0.1,0.5,0.3,0.7l8.2,8.4c0.2,0.2,0.5,0.4,0.9,0.4
		c0.1,0,0.3,0,0.4-0.1c0.4-0.2,0.8-0.6,0.8-1C65.2,11.5,65.7,4.4,64.1-5z"/>
	<path class="st20" d="M42.9-62.1c-2-6.5-7.7-11.8-16.7-15.7c-0.3-0.1-0.7-0.1-1.1,0c-0.3,0.2-0.6,0.5-0.6,0.8
		c-0.1,0.6-2.8,15.6,3.9,24.6c2.7,3.7,6.6,5.8,11.5,6.4c0,0,0.1,0,0.1,0c0.4,0,0.8-0.2,1-0.6C41.3-46.9,45.5-53.9,42.9-62.1z
		 M37.1-53.2c-1.6-0.4-2.9-1.2-3.9-2.5c-2.6-3.3-2.7-8.9-2.5-11.7c3.3,1.8,5.5,4,6.5,6.7C38.3-57.6,37.6-54.6,37.1-53.2z"/>
</g>
</svg>
