<?xml version="1.0" encoding="utf-8"?>
<!-- Generator: Adobe Illustrator 19.0.0, SVG Export Plug-In . SVG Version: 6.00 Build 0)  -->
<svg version="1.1" xmlns="http://www.w3.org/2000/svg" xmlns:xlink="http://www.w3.org/1999/xlink" x="0px" y="0px"
	 viewBox="0 0 724.4 982" style="enable-background:new 0 0 724.4 982;" xml:space="preserve">
<style type="text/css">
	.st0{display:none;}
	.st1{display:inline;fill:url(#SVGID_1_);}
	.st2{display:inline;fill:url(#SVGID_2_);}
	.st3{display:inline;fill:url(#SVGID_3_);}
	.st4{display:inline;fill:url(#SVGID_4_);}
	.st5{display:inline;}
	.st6{fill:url(#SVGID_5_);}
	.st7{fill:url(#SVGID_6_);}
	.st8{fill:url(#SVGID_7_);}
	.st9{fill:url(#SVGID_8_);}
	.st10{fill:#8DC73F;}
	.st11{fill:#FFFFFF;}
	.st12{fill:#82BD1E;}
	.st13{fill:#151615;}
	.st14{fill:#EFEF18;}
	.st15{fill:#646B64;}
	.st16{font-family:'Fontastique-Fontastique';}
	.st17{font-size:414.077px;}
	.st18{letter-spacing:4;}
	.st19{display:inline;fill:#82BD1E;}
</style>
<g id="Layer_1" class="st0">
	<g>
		<linearGradient id="SVGID_1_" gradientUnits="userSpaceOnUse" x1="-203.1775" y1="-75.8416" x2="-154.546" y2="-75.8416">
			<stop  offset="0" style="stop-color:#009433"/>
			<stop  offset="0.1198" style="stop-color:#21A338"/>
			<stop  offset="0.3459" style="stop-color:#5ABB42"/>
			<stop  offset="0.5549" style="stop-color:#88CF49"/>
			<stop  offset="0.7402" style="stop-color:#A8DD4F"/>
			<stop  offset="0.8949" style="stop-color:#BCE652"/>
			<stop  offset="1" style="stop-color:#C3E953"/>
		</linearGradient>
		<path class="st1" d="M-157.3-110.4l-0.5-2.5c-0.1-0.2-0.1-0.5-0.2-0.7l-3.5-8.3c-0.3-0.9-1.4-0.8-1.7,0.1c0,0.1,0,0.2,0,0.4
			l0.8,8.4l-0.6-0.5c-0.5-0.5-0.9-1.1-1.2-1.8l-2.2-4.9c-0.1-0.2-0.2-0.3-0.3-0.5l-3.4-5.7c-0.8-1.4-2.1-2.3-3.6-2.7
			c-0.8-0.2-1.3,0.8-0.9,1.5l0.7,1.2c0.1,0.3,0.3,0.5,0.4,0.8l5.2,13.1c0.3,0.8,0.5,1.6,0.6,2.5l0.2,1.4c0.1,1-0.8,1.7-1.6,1.3
			l-0.1,0c-0.6-0.3-1.1-0.8-1.5-1.5l-1.1-2.1l-8.2-14.4c-0.7-1.3-1.7-2.3-2.9-3l-0.7-0.4c-0.6-0.4-1.3,0.1-1.3,0.9v0.1
			c0,1.2,0.3,2.5,0.8,3.6l9.5,19.5c0.1,0.1,0.1,0.3,0.1,0.5v1.6c0,0.9-0.9,1.6-1.6,1.2l-0.6-0.3c-0.2-0.1-0.3-0.2-0.4-0.4l-7.3-13
			c-0.1-0.1-0.2-0.2-0.2-0.3l-1.3-1.1c-0.6-0.5-1.5,0.1-1.4,1c0.1,0.8,0.2,1.7,0.3,2.2c0.2,0.9,2.9,11.3,6.2,15.7
			c2.6,3.5,1.2,4.8-2,2.5c-1.7-1.3-3.9-1.5-3.6,0.3c0.1,0.7,2.9,5.3,5.8,10.1c4.5,7.6,7.1,20.8,7.1,29.6c0,16.1-9.7,23.3-12,25.4
			c-7.8,7.2-17.8,4-17.6,3.6C-142-2.8-154.9-100.1-157.3-110.4z"/>
		<linearGradient id="SVGID_2_" gradientUnits="userSpaceOnUse" x1="-233.2502" y1="-59.4308" x2="-150.6933" y2="-59.4308">
			<stop  offset="0" style="stop-color:#00ACBF"/>
			<stop  offset="0.1983" style="stop-color:#03ADBD"/>
			<stop  offset="0.345" style="stop-color:#0CB0B8"/>
			<stop  offset="0.4753" style="stop-color:#1CB5AF"/>
			<stop  offset="0.5959" style="stop-color:#33BCA3"/>
			<stop  offset="0.7099" style="stop-color:#50C592"/>
			<stop  offset="0.819" style="stop-color:#74D07F"/>
			<stop  offset="0.9222" style="stop-color:#9EDD67"/>
			<stop  offset="1" style="stop-color:#C3E953"/>
		</linearGradient>
		<path class="st2" d="M-233-52c0,0,5.5,12.8,16.6,20c13.7,8.8,34.8,10.5,51.5-13c3.6-5.1,16.2-30.4,6.1-70.3c0,0,20.7,53-3.8,92.6
			C-176.9,0.4-237.2,13.8-233-52z"/>
		
			<linearGradient id="SVGID_3_" gradientUnits="userSpaceOnUse" x1="-241.1877" y1="-63.6851" x2="-307.3254" y2="50.8689" gradientTransform="matrix(0.9951 9.866261e-002 -9.866261e-002 0.9951 59.9234 -39.9976)">
			<stop  offset="0" style="stop-color:#E93400"/>
			<stop  offset="0.5198" style="stop-color:#D5A038"/>
			<stop  offset="1" style="stop-color:#C4FF6A"/>
		</linearGradient>
		<path class="st3" d="M-224.3-39.2c-2.8-11.5-3.8-27.1,0-44.7c2.2-10.2,4.5-17.9,5.8-25.6c0.5-1.7,5.3-11.1,8-15.8
			c0.8-1.5-2-3-3.3-2.2l-4.1,3.5l-3.3,2.5c-1.2,0.8-2.6-0.6-2.1-2c0.8-2,3.1-6.1,3.8-7.5c0.8-1.4,5.5-10.6,7.5-15.5
			c0.7-1.7-1.3-3.2-2.4-1.7c-3.1,4-9.2,13.9-9.6,14.8c-0.2,0.6-0.7,1.3-1.3,2.1c-1,1.2-2.7,0.3-2.5-1.3c0.3-2.2,1.2-4.9,1.7-5.8
			c0.9-1.8,6.8-15.7,7.3-16.7c0,0,0-0.1,0-0.1l0.8-2.2c0.6-1.5-2-2.9-3.1-1.9l-1.2,1.4c-0.2,0.2-1.1,1.4-1.2,1.6l-9.3,19.6
			c-0.2,0.4-1.4,2.1-1.7,2.3l-0.8,0.5c-0.4,0.3-0.9-0.1-0.8-0.7l1.4-5.2c0,0,0-0.1,0-0.1l5.5-14.5c0-0.1,0.1-0.4,0.1-0.5l0.1-1
			c0.2-1.2-1.1-2-1.9-1.2l-0.6,0.5c-0.1,0.1-0.2,0.2-0.3,0.3c-1.1,1.8-8.7,16.5-8.9,17.2c-0.5,1.2-1.7,4.5-3.4,5
			c-0.2,0.1-0.9,0-1.1-0.3c-0.9-0.7-0.5-1.9-0.2-2.5l3.6-6.4l1.4-2.3c0.3-1.6-1.9-2.2-2.9-1c-2,2.4-6.4,7.2-7.8,11.2
			c0,0-30.1,73.5,0.7,114.2c16.5,21.8,58.4,23.4,79.7,7C-180.2-7-216.4-6.8-224.3-39.2z"/>
		<linearGradient id="SVGID_4_" gradientUnits="userSpaceOnUse" x1="-164.957" y1="-32.8386" x2="-264.2606" y2="-32.8386">
			<stop  offset="0" style="stop-color:#E93400"/>
			<stop  offset="4.448855e-002" style="stop-color:#E74006"/>
			<stop  offset="0.3032" style="stop-color:#DB8329"/>
			<stop  offset="0.5373" style="stop-color:#D1B945"/>
			<stop  offset="0.7387" style="stop-color:#CADF59"/>
			<stop  offset="0.8997" style="stop-color:#C6F666"/>
			<stop  offset="1" style="stop-color:#C4FF6A"/>
		</linearGradient>
		<path class="st4" d="M-264.3-62.9c0,0,10.1,39.9,38.3,51c30.5,12,49.8,3.1,61-7.6c0,0-28.1,30.8-72.4,8.7
			C-255.5-19.8-262.7-35.8-264.3-62.9z"/>
	</g>
	<g>
		<g class="st5">
			<linearGradient id="SVGID_5_" gradientUnits="userSpaceOnUse" x1="-371.2626" y1="184.9471" x2="-275.0283" y2="184.9471">
				<stop  offset="0" style="stop-color:#009433"/>
				<stop  offset="0.1198" style="stop-color:#21A338"/>
				<stop  offset="0.3459" style="stop-color:#5ABB42"/>
				<stop  offset="0.5549" style="stop-color:#88CF49"/>
				<stop  offset="0.7402" style="stop-color:#A8DD4F"/>
				<stop  offset="0.8949" style="stop-color:#BCE652"/>
				<stop  offset="1" style="stop-color:#C3E953"/>
			</linearGradient>
			<path class="st6" d="M-280.5,116.6l-1-5c-0.1-0.5-0.2-0.9-0.4-1.4l-6.9-16.4c-0.6-1.7-2.9-1.6-3.3,0.2c-0.1,0.2-0.1,0.5-0.1,0.7
				l1.5,16.5l-1.2-1.1c-0.9-1-1.7-2.2-2.3-3.5l-4.4-9.6c-0.2-0.3-0.3-0.6-0.5-1l-6.8-11.3c-1.6-2.7-4.2-4.6-7-5.3
				c-1.5-0.3-2.7,1.5-1.8,3l1.4,2.4c0.3,0.5,0.5,1,0.8,1.6l10.3,26c0.6,1.6,1,3.2,1.3,4.9l0.3,2.9c0.2,1.9-1.5,3.4-3.1,2.6l-0.2-0.1
				c-1.2-0.6-2.3-1.6-2.9-2.9l-2.2-4.2l-16.2-28.5c-1.4-2.5-3.4-4.6-5.7-6l-1.4-0.9c-1.2-0.7-2.6,0.2-2.6,1.7v0.2
				c0,2.5,0.5,4.9,1.6,7l18.8,38.6c0.1,0.3,0.2,0.6,0.2,0.9v3.1c0,1.8-1.7,3.1-3.2,2.3l-1.3-0.6c-0.3-0.2-0.6-0.4-0.8-0.8
				l-14.4-25.8c-0.2-0.2-0.3-0.4-0.5-0.6l-2.7-2.1c-1.3-1-3,0.2-2.8,1.9c0.2,1.7,0.5,3.4,0.7,4.4c0.4,1.8,5.8,22.3,12.4,31
				c5.2,6.9,2.4,9.5-3.9,4.9c-3.4-2.5-7.8-3-7.2,0.6c0.2,1.4,5.7,10.5,11.4,20.1c9,14.9,14.1,41.2,14.1,58.6
				c0,31.9-19.3,46.1-23.8,50.3c-15.4,14.3-35.2,7.8-34.9,7.2C-250.3,329.4-275.7,136.9-280.5,116.6z"/>
			<linearGradient id="SVGID_6_" gradientUnits="userSpaceOnUse" x1="-430.7721" y1="217.4214" x2="-267.4043" y2="217.4214">
				<stop  offset="0" style="stop-color:#00ACBF"/>
				<stop  offset="0.1983" style="stop-color:#03ADBD"/>
				<stop  offset="0.345" style="stop-color:#0CB0B8"/>
				<stop  offset="0.4753" style="stop-color:#1CB5AF"/>
				<stop  offset="0.5959" style="stop-color:#33BCA3"/>
				<stop  offset="0.7099" style="stop-color:#50C592"/>
				<stop  offset="0.819" style="stop-color:#74D07F"/>
				<stop  offset="0.9222" style="stop-color:#9EDD67"/>
				<stop  offset="1" style="stop-color:#C3E953"/>
			</linearGradient>
			<path class="st7" d="M-430.4,232.2c0,0,10.8,25.4,32.9,39.6c27.1,17.4,68.8,20.8,101.8-25.6c7.2-10.1,32-60.1,12.1-139
				c0,0,40.9,104.9-7.6,183.2C-319.3,335.9-438.6,362.4-430.4,232.2z"/>
			
				<linearGradient id="SVGID_7_" gradientUnits="userSpaceOnUse" x1="-359.0678" y1="159.5823" x2="-489.9445" y2="386.2674" gradientTransform="matrix(0.9951 9.866261e-002 -9.866261e-002 0.9951 59.9234 -39.9976)">
				<stop  offset="0" style="stop-color:#E93400"/>
				<stop  offset="0.5198" style="stop-color:#D5A038"/>
				<stop  offset="1" style="stop-color:#C4FF6A"/>
			</linearGradient>
			<path class="st8" d="M-413.1,257.5c-5.5-22.8-7.6-53.6-0.1-88.5c4.4-20.2,8.8-35.5,11.5-50.7c0.9-3.5,10.6-22.1,15.7-31.3
				c1.6-2.9-3.9-6-6.5-4.3l-8,6.9l-6.5,5c-2.4,1.5-5.2-1.2-4.1-4c1.5-4,6-12.1,7.6-14.8c1.6-2.8,10.9-21,14.9-30.7
				c1.4-3.4-2.6-6.3-4.8-3.4c-6.1,7.9-18.3,27.4-19,29.3c-0.4,1.2-1.4,2.7-2.6,4.1c-1.9,2.4-5.4,0.5-5-2.6c0.5-4.4,2.4-9.6,3.3-11.5
				c1.8-3.7,13.5-31.1,14.4-33.1c0-0.1,0.1-0.1,0.1-0.2l1.6-4.4c1.1-3-3.9-5.7-6.2-3.8l-2.5,2.7c-0.4,0.3-2.2,2.8-2.4,3.2
				l-18.5,38.8c-0.3,0.7-2.7,4.2-3.3,4.5l-1.6,1c-0.8,0.5-1.8-0.3-1.7-1.3l2.8-10.2c0-0.1,0.1-0.2,0.1-0.3l11-28.7
				c0.1-0.3,0.2-0.8,0.3-1l0.3-1.9c0.3-2.3-2.1-3.9-3.7-2.4l-1.1,1c-0.2,0.2-0.4,0.4-0.6,0.7c-2.2,3.6-17.2,32.6-17.7,34
				c-0.9,2.4-3.4,8.9-6.7,9.8c-0.4,0.1-1.7-0.1-2.2-0.5c-1.7-1.5-1-3.8-0.4-5l7.2-12.6l2.7-4.6c0.7-3.2-3.7-4.4-5.7-2
				c-3.9,4.7-12.6,14.3-15.4,22.2c0,0-59.6,145.4,1.4,226C-432,336-349.1,339.2-307,306.6C-325.7,321.1-397.5,321.5-413.1,257.5z"/>
			<linearGradient id="SVGID_8_" gradientUnits="userSpaceOnUse" x1="-295.6301" y1="270.0434" x2="-492.1369" y2="270.0434">
				<stop  offset="0" style="stop-color:#E93400"/>
				<stop  offset="4.448855e-002" style="stop-color:#E74006"/>
				<stop  offset="0.3032" style="stop-color:#DB8329"/>
				<stop  offset="0.5373" style="stop-color:#D1B945"/>
				<stop  offset="0.7387" style="stop-color:#CADF59"/>
				<stop  offset="0.8997" style="stop-color:#C6F666"/>
				<stop  offset="1" style="stop-color:#C4FF6A"/>
			</linearGradient>
			<path class="st9" d="M-492.1,210.6c0,0,20,78.9,75.7,100.9c60.3,23.8,98.6,6.2,120.8-15c0,0-55.6,60.9-143.3,17.2
				C-474.7,295.8-489.1,264.2-492.1,210.6z"/>
		</g>
		<g class="st5">
			<circle class="st10" cx="-358.6" cy="647.5" r="156.5"/>
			<path class="st11" d="M-392.8,796.9V680.4c0-3.8-2-7.2-5.3-9.1l-60.7-33.8l0,0c-7.3-0.2-12.4,7.1-9.7,13.9l0,0
				c0.1,0.2,0.3,0.4,0.5,0.6c0,0,50.6,29.4,50.7,29.8c4.5,12.4-2.6,20.7-14.6,17.1c-0.6-0.2-48.3-29-48.3-29s-10.1-7.1-11.8-17
				c-1.4-7.9-0.2-13,2.4-18.8l5.3-8.9l5-4.5c7.7-4.4,19.1-5.8,27.7-3.3l10.5,5.1l62.6,36.9c3.4,2,5.5,5.7,5.5,9.6v134.3v23.4h-22.5
				L-392.8,796.9z"/>
			<path class="st11" d="M-327.5,796.9V680.4c0-3.8,2-7.2,5.3-9.1l60.7-33.8h0c7.3-0.2,12.4,7.1,9.7,13.9h0
				c-0.1,0.2-0.3,0.4-0.5,0.6c0,0-50.6,29.4-50.7,29.8c-4.5,12.4,2.6,20.7,14.6,17.1c0.6-0.2,48.3-29,48.3-29s10.1-7.1,11.8-17
				c1.4-7.9,0.2-13-2.4-18.8l-5.3-8.9l-5-4.5c-7.7-4.4-19.1-5.8-27.7-3.3l-10.5,5.1l-62.6,36.9c-3.4,2-5.5,5.7-5.5,9.6v134.3v23.4
				h22.5L-327.5,796.9z"/>
			<path class="st11" d="M-268.5,565.3l-4.6-7.7l-4.3-3.9c-6.7-3.8-16.6-5-24-2.9l-9.1,4.4l-50.2,29.6l-50.2-29.6l-9.1-4.4
				c-7.4-2.1-17.3-1-24,2.9l-4.3,3.9l-4.6,7.7c-2.3,5-3.2,9.4-2.1,16.3c1.5,8.6,10.2,14.7,10.2,14.7s41.3,25,41.8,25.1
				c10.4,3.1,16.5-4.1,12.6-14.8c-0.1-0.4-43.9-25.8-43.9-25.8c-0.2-0.1-0.3-0.3-0.4-0.5c-2.4-5.9,2.1-12.2,8.4-12h0l52.6,29.3
				c1.9,1.1,3.4,2.8,4.1,4.9v17.2v21.3l8.8,7.1l8.8-7.1v-21.3v-17.2c0.7-2,2.1-3.8,4.1-4.9l52.6-29.3h0c6.3-0.2,10.7,6.2,8.4,12
				c-0.1,0.2-0.2,0.4-0.4,0.5c0,0-43.8,25.4-43.9,25.8c-3.9,10.7,2.2,17.9,12.6,14.8c0.5-0.1,41.8-25.1,41.8-25.1s8.7-6.1,10.2-14.7
				C-265.2,574.7-266.2,570.3-268.5,565.3z"/>
		</g>
		<text transform="matrix(1 0 0 1 -481.3786 380.5381)" class="st5" style="font-family:'MyriadPro-Bold'; font-size:34.3126px;">G R O  F R E S H</text>
	</g>
	<g>
		<g class="st5">
			<path class="st12" d="M-701.3-1.6h91c8.8,0,16,7,16.3,15.8l3.2,105.1c0.2,5.3-4.1,9.6-9.3,9.6h0l-4.5-114c-0.1-3.5-3-6.3-6.5-6.3
				l-89.9-0.2c-3.6,0-6.6,2.9-6.6,6.5l-1.1,97.8c0,3.4,2.7,6.3,6.2,6.3h80.2l9.8,10h-91.9c-8,0-14.4-6.4-14.4-14.4V15.9
				C-718.8,6.2-710.9-1.6-701.3-1.6z"/>
			<path class="st12" d="M-653.8-45.6h-0.2h-1.6h-0.2c-14.1,0-25.6,9.3-25.6,24.6v0v37.1c0,2.9,2.2,5.3,4.9,5.3
				c2.9,0,5.2-2.5,5.2-5.6v-35c0-8.8,6.5-15.8,14.6-15.8h1.1h1.6h1.1c8,0,14.6,7.1,14.6,15.8v35c0,3.1,2.3,5.6,5.2,5.6
				c2.7,0,4.9-2.4,4.9-5.3V-21v0C-628.2-36.4-639.7-45.6-653.8-45.6z"/>
			<path class="st12" d="M-612.5,128.9c0,0,6.8-77.9-73.3-72.8c-13,0.8-19.7,5.8-18.3,9.9c6.1,18.6,37.6,33.9,62.3,23.2
				c0,0-17.7-17-29.7-16.3l14.2,11.7c0,0-30,0.6-36.3-17.6c2.1-3.4,63.8-17.9,71.4,51.9L-612.5,128.9z"/>
			<path class="st12" d="M-658.1,23.4c0,0-6,32.6,17.2,35.3C-641,58.6-627.6,36.7-658.1,23.4z M-643.6,53
				c-12.6-1.4-9.8-20.8-9.8-20.8C-636.9,39.5-643.6,53-643.6,53z"/>
		</g>
		
			<text transform="matrix(1 0 0 1 -576.751 73.575)" style="display:inline;fill:#646B64; font-family:'Arial-BoldMT'; font-size:39.7268px;">Gro</text>
		
			<text transform="matrix(1 0 0 1 -478.0318 73.575)" style="display:inline;fill:#646B64; font-family:'Arial-BoldMT'; font-size:39.7268px;">Fresh</text>
		
			<text transform="matrix(1 0 0 1 -499.0318 73.575)" style="display:inline;fill:#646B64; font-family:'Arial-BoldMT'; font-size:39.7268px;">-</text>
	</g>
	<g class="st5">
		<path class="st13" d="M-55.7,437.4c17,0,31.9,4.3,44.2,12.9C-0.3,459.4,6,472.2,7,488.8h-18.6c-5.4,0-9.7-2.6-13.2-7.6
			c-5.8-11.9-16-17.7-30.2-17.7c-25.2,0-38.2,16-38.4,48.1c-0.2,32.1,12.9,49.4,39.9,51.3c20.3,0,32.1-13.6,35.4-31.3h-17.7
			c-8.4,0-15.1-6.7-15.1-15.1v-9.3H9v79.2H1.4c-7.1,0-14-4.7-14.7-11.4l-1.3-7.1c-10.4,13.4-20.9,20.7-42.1,20.7
			c-42.1,0-67.5-32.6-67.5-75.5C-124.8,469.8-99.1,435.7-55.7,437.4z"/>
		<path class="st13" d="M23.2,527.6c0.9-36.9,20.5-55.2,58.7-55.2H86v29.8h-9.7c-16,0-23.9,8.4-23.9,25v59.3H23.2V527.6z"/>
		<path class="st13" d="M202.3,530c0,39.3-17.5,59.1-52,59.1c-34.5,0-51.8-19.8-51.8-59.1c0-39.7,17.3-59.3,51.8-59.3
			C184.8,470.6,202.3,490.3,202.3,530z M127.6,530c0.2,22.2,7.8,33.4,22.4,33.4c14.7,0,22-11.6,22.2-34.3c0-22.2-7.3-33.2-22-33.2
			C135.2,495.9,127.6,507.3,127.6,530z"/>
		<path class="st14" d="M226.3,536.6v-29.4h55.8v29.4H226.3z"/>
		<path class="st13" d="M380.2,521.6h-41.6v64.9H309v-131c0-8.4,6.7-15.7,15.1-15.7h91v25.5h-76.6v31.5H396v9.7
			C396,514.9,388.6,521.6,380.2,521.6z"/>
		<path class="st13" d="M419.7,527.6c0.9-36.9,20.5-55.2,58.7-55.2h4.1v29.8h-9.7c-16,0-23.9,8.4-23.9,25v59.3h-29.1V527.6z"/>
		<path class="st13" d="M546.8,589.1c-34.5-1.1-51.8-21.1-51.8-60s17.5-58.3,52.2-58.5c36.2,0,53.3,22.2,51.1,66.9h-73.8
			c1.1,17.5,8.6,26.3,22.7,26.3c6.7,0,12.9-2.8,18.6-8.2c2.6-2.8,5.8-4.1,9.7-4.1h21.1C590.4,575.7,574.8,589.1,546.8,589.1z
			 M525,517h42.9c-1.7-15.1-8.8-22.9-21.1-22.9C534.5,494.2,527.1,501.9,525,517z"/>
		<path class="st13" d="M661.6,565.8c12.1,0,18.1-3.5,18.1-10.8c0-5.8-9.9-10.6-29.6-14c-25.2-4.5-38.2-15.8-38.4-33.7
			c0-24.6,19.4-36.2,45.5-36.7c14.7,0,26.3,3.2,35,9.7c8.4,6.7,12.9,16,13.6,27.8h-18.1c-6.7-0.2-11-2.6-12.7-7.1
			c-1.9-5-7.8-7.8-17.3-7.8c-11.2,0-16.8,3-16.8,8.8c0,5.8,7.3,10.4,22.2,13.2c19.4,3.9,32.1,8.8,38.4,14.7c5.4,5.6,8,12.5,8,20.3
			c0,28-22,38.4-52.2,38.4c-16,0-28-3.5-35.8-10.1c-8.6-6.5-12.9-16.4-12.9-29.6h29.3C638.5,561.5,647.5,565.8,661.6,565.8z"/>
		<path class="st13" d="M775,496.3c-17,0-24.4,14.2-24.4,31.7v58.5H722V439.8h14.5c9.5,0,14.2,5,14.2,14.5v34.1
			c14.7-16.8,32.6-21.6,53.9-14c16,5.8,23.5,21.1,22.7,46v66.2h-28.5V528C798.8,508.8,791.4,496.3,775,496.3z"/>
	</g>
	<g>
		
			<text transform="matrix(1 0 0 1 -632.3571 797.7427)" style="display:inline;fill:#646B64; font-family:'Arial-BoldMT'; font-size:69.5486px; letter-spacing:1;">-</text>
		<g class="st5">
			<path class="st12" d="M-758.7,682.4h91c8.8,0,16,7,16.3,15.8l3.2,105.1c0.2,5.3-4.1,9.6-9.3,9.6l0,0l-4.5-114
				c-0.1-3.5-3-6.3-6.5-6.3l-89.9-0.2c-3.6,0-6.6,2.9-6.6,6.5l-1.1,97.8c0,3.4,2.7,6.3,6.2,6.3h80.2l9.8,10h-91.9
				c-8,0-14.4-6.4-14.4-14.4v-98.6C-776.2,690.3-768.3,682.4-758.7,682.4z"/>
			<path class="st12" d="M-711.2,638.5h-0.2h-1.6h-0.2c-14.1,0-25.6,9.3-25.6,24.6v0v37.1c0,2.9,2.2,5.3,4.9,5.3
				c2.9,0,5.2-2.5,5.2-5.6v-35c0-8.8,6.5-15.8,14.6-15.8h1.1h1.6h1.1c8,0,14.6,7.1,14.6,15.8v35c0,3.1,2.3,5.6,5.2,5.6
				c2.7,0,4.9-2.4,4.9-5.3v-37.1v0C-685.6,647.7-697.1,638.5-711.2,638.5z"/>
			<path class="st12" d="M-669.9,813c0,0,6.8-77.9-73.3-72.8c-13,0.8-19.7,5.8-18.3,9.9c6.1,18.6,37.6,33.9,62.3,23.2
				c0,0-17.7-17-29.7-16.3l14.2,11.7c0,0-30,0.6-36.3-17.6c2.1-3.4,63.8-17.9,71.4,51.9L-669.9,813z"/>
			<path class="st12" d="M-715.5,707.4c0,0-6,32.6,17.2,35.3C-698.3,742.7-685,720.8-715.5,707.4z M-701,737.1
				c-12.6-1.4-9.8-20.8-9.8-20.8C-694.3,723.6-701,737.1-701,737.1z"/>
		</g>
		
			<text transform="matrix(1 0 0 1 -632.3571 739.9692)" style="display:inline;fill:#646B64; font-family:'Arial-BoldMT'; font-size:69.5486px; letter-spacing:-3;">Gro</text>
		
			<text transform="matrix(1 0 0 1 -608.9894 801.2446)" style="display:inline;fill:#646B64; font-family:'Arial-BoldMT'; font-size:69.5486px; letter-spacing:-3;">Fresh</text>
		
			<text transform="matrix(1 0 0 1 -449.2536 1020.8766)" style="display:inline;fill:#646B64; font-family:'Arial-BoldMT'; font-size:111.1343px; letter-spacing:1;">-</text>
		<g class="st5">
			<path class="st12" d="M-758.7,916.2h91c8.8,0,16,7,16.3,15.8l3.2,105.1c0.2,5.3-4.1,9.6-9.3,9.6l0,0l-4.5-114
				c-0.1-3.5-3-6.3-6.5-6.3l-89.9-0.2c-3.6,0-6.6,2.9-6.6,6.5l-1.1,97.8c0,3.4,2.7,6.3,6.2,6.3h80.2l9.8,10h-91.9
				c-8,0-14.4-6.4-14.4-14.4v-98.6C-776.2,924.1-768.3,916.2-758.7,916.2z"/>
			<path class="st12" d="M-711.2,872.3h-0.2h-1.6h-0.2c-14.1,0-25.6,9.3-25.6,24.6v0V934c0,2.9,2.2,5.3,4.9,5.3
				c2.9,0,5.2-2.5,5.2-5.6v-35c0-8.8,6.5-15.8,14.6-15.8h1.1h1.6h1.1c8,0,14.6,7.1,14.6,15.8v35c0,3.1,2.3,5.6,5.2,5.6
				c2.7,0,4.9-2.4,4.9-5.3v-37.1v0C-685.6,881.5-697.1,872.3-711.2,872.3z"/>
			<path class="st12" d="M-669.9,1046.8c0,0,6.8-77.9-73.3-72.8c-13,0.8-19.7,5.8-18.3,9.9c6.1,18.6,37.6,33.9,62.3,23.2
				c0,0-17.7-17-29.7-16.3l14.2,11.7c0,0-30,0.6-36.3-17.6c2.1-3.4,63.8-17.9,71.4,51.9L-669.9,1046.8z"/>
			<path class="st12" d="M-715.5,941.2c0,0-6,32.6,17.2,35.3C-698.3,976.5-685,954.6-715.5,941.2z M-701,970.9
				c-12.6-1.4-9.8-20.8-9.8-20.8C-694.3,957.4-701,970.9-701,970.9z"/>
		</g>
		
			<text transform="matrix(1 0 0 1 -622.4567 1023.6754)" style="display:inline;fill:#646B64; font-family:'RaspoutineMedium'; font-size:111.1343px; letter-spacing:1;">Gro</text>
		
			<text transform="matrix(1 0 0 1 -411.9128 1026.4723)" style="display:inline;fill:#646B64; font-family:'RaspoutineMedium'; font-size:111.1343px; letter-spacing:1;">Fresh</text>
	</g>
	<text transform="matrix(1 0 0 1 518.6352 601.3304)" class="st15 st16 st17 st18">-</text>
	<g>
		<path class="st19" d="M-592.9,219.5h325.6c31.5,0,57.3,25,58.2,56.5l11.3,376c0.6,18.9-14.6,34.4-33.4,34.4h0l-16.2-407.9
			c-0.5-12.5-10.8-22.4-23.3-22.4l-321.5-0.7c-12.9,0-23.4,10.4-23.6,23.3l-3.8,349.6c-0.1,12.3,9.8,22.4,22.2,22.4h286.9l34.9,35.8
			H-604c-28.4,0-51.5-23.1-51.5-51.5V282.1C-655.5,247.5-627.5,219.5-592.9,219.5z"/>
		<path class="st19" d="M-423.2,62.3h-0.6h-5.8h-0.6c-50.6,0-91.6,33.1-91.6,88.1v0V283c0,10.5,7.9,19.1,17.5,19.1
			c10.2,0,18.5-9,18.5-20.1V156.8c0-31.3,23.3-56.7,52.1-56.7h4h5.8h4c28.8,0,52.1,25.4,52.1,56.7V282c0,11.1,8.3,20.1,18.5,20.1
			c9.7,0,17.5-8.5,17.5-19.1V150.4v0C-331.6,95.4-372.6,62.3-423.2,62.3z"/>
		<path class="st19" d="M-275.5,686.4c0,0,24.2-278.4-262.1-260.2c-46.5,3-70.5,20.6-65.6,35.4c22,66.6,134.6,121.4,222.8,83.1
			c0,0-63.5-60.9-106.1-58.4l50.7,41.7c0,0-107.4,2.1-129.9-63c7.6-12,228-64,255.3,185.7L-275.5,686.4z"/>
		<path class="st19" d="M-438.5,308.9c0,0-21.3,116.7,61.3,126.1C-377.2,435-329.5,356.6-438.5,308.9z M-386.8,415
			c-45-5.1-35.2-74.2-35.2-74.2C-362.6,366.7-386.8,415-386.8,415z"/>
	</g>
	<text transform="matrix(1 0 0 1 -95.4332 601.3373)" class="st15 st16 st17 st18">Gro</text>
	<text transform="matrix(1 0 0 1 699.4545 611.7572)" class="st15 st16 st17 st18">Fresh</text>
</g>
<g id="Layer_2">
	<g>
		<path class="st12" d="M707,338.5c-1.6-53.4-44.7-95.2-98.1-95.2h-504C47.1,243.4,0,290.4,0,348.3v546.1C0,942.7,39.3,982,87.7,982
			h508.5c3.2,0,6.1-1.9,7.3-4.9c1.2-3,0.6-6.4-1.6-8.7l-54.1-55.4c-1.5-1.5-3.6-2.4-5.7-2.4H98c-7.1,0-13.7-2.8-18.7-7.8
			c-5-5-7.7-11.7-7.6-18.8l5.8-541.2c0.2-15.5,12.9-28.1,28.4-28.1c0,0,0,0,0.1,0l497.6,1.2c15.2,0,27.5,11.9,28.1,27.1l25,631.3
			c0.2,4.3,3.7,7.7,8,7.7c16.3,0,31.5-6.4,42.9-18.1c11.3-11.7,17.3-27.1,16.8-43.4L707,338.5z"/>
		<path class="st12" d="M367.6,0h-10.7c-88.2,0-149.7,59.4-149.7,144.4v205.3c0,20.7,15.8,37.5,35.1,37.5
			c20.2,0,36.6-17.5,36.6-39.1V154.3c0-44,32.6-79.7,72.7-79.7h21.4c40.1,0,72.7,35.8,72.7,79.7v193.8c0,21.6,16.4,39.1,36.6,39.1
			c19.4,0,35.1-16.8,35.1-37.5V144.4C517.3,59.4,455.7,0,367.6,0z"/>
		<path class="st12" d="M597.6,863.6c-9.8-57.7-34.4-139.7-96.2-202.9c-71.6-73.2-176.3-106-311.4-97.4
			c-50.8,3.2-89.8,18-104.3,39.4c-5.7,8.4-7.2,17.3-4.4,25.8c16.5,50.1,64.9,97.3,129.4,126.2c76,34,158.4,36.7,226.2,7.2
			c2.4-1.1,4.2-3.3,4.7-5.9c0.5-2.6-0.4-5.3-2.3-7.2c-4.1-3.9-101.5-96.7-170.2-92.5c-3.3,0.2-6.1,2.4-7.1,5.5c-1,3.1,0,6.5,2.5,8.6
			l60.2,49.6c-44.5-3.3-140.1-18.3-168.2-85.9c20.1-9.7,110.7-28.7,197.2,4.1c102.1,38.7,164.5,136,180.4,281.3
			c0.2,1.8,1,3.4,2.2,4.7l54.1,55.4c1.5,1.6,3.6,2.4,5.7,2.4c0.9,0,1.8-0.2,2.7-0.5c2.9-1.1,5-3.7,5.3-6.8
			C604.3,972.8,608.1,925.9,597.6,863.6z"/>
		<path class="st14" d="M457.3,486.2c-13.5-42.8-50.6-77.7-110.2-103.8c-2.2-1-4.8-0.9-6.9,0.3c-2.2,1.1-3.7,3.2-4.1,5.6
			c-0.8,4.2-18.2,103.1,25.9,162.6c17.9,24.2,43.5,38.3,76,42c0.3,0,0.6,0.1,0.9,0.1c2.8,0,5.4-1.4,6.8-3.8
			C446.8,587.1,474.5,540.7,457.3,486.2z M419,545.1c-10.7-2.4-19.3-7.8-26-16.6c-17.1-22.1-17.6-59-16.5-77.3
			c22.1,11.6,36.6,26.5,43.1,44.4C427,516.2,422.2,535.9,419,545.1z"/>
	</g>
</g>
</svg>
