<?xml version="1.0" encoding="utf-8"?>
<!-- Generator: Adobe Illustrator 19.0.0, SVG Export Plug-In . SVG Version: 6.00 Build 0)  -->
<svg version="1.1" xmlns="http://www.w3.org/2000/svg" xmlns:xlink="http://www.w3.org/1999/xlink" x="0px" y="0px"
	 viewBox="0 0 797.3 161.2" style="enable-background:new 0 0 797.3 161.2;" xml:space="preserve">
<style type="text/css">
	.st0{display:none;}
	.st1{display:inline;fill:url(#SVGID_1_);}
	.st2{display:inline;fill:url(#SVGID_2_);}
	.st3{display:inline;fill:url(#SVGID_3_);}
	.st4{display:inline;fill:url(#SVGID_4_);}
	.st5{display:inline;}
	.st6{fill:url(#SVGID_5_);}
	.st7{fill:url(#SVGID_6_);}
	.st8{fill:url(#SVGID_7_);}
	.st9{fill:url(#SVGID_8_);}
	.st10{fill:#8DC73F;}
	.st11{fill:#FFFFFF;}
	.st12{fill:#82BD1E;}
	.st13{display:none;fill:#646B64;}
	.st14{font-family:'Fontastique-Fontastique';}
	.st15{font-size:414.077px;}
	.st16{letter-spacing:4;}
	.st17{display:inline;fill:#82BD1E;}
	.st18{fill:#151615;}
	.st19{fill:#EFEF18;}
</style>
<g id="Layer_1">
	<g class="st0">
		<linearGradient id="SVGID_1_" gradientUnits="userSpaceOnUse" x1="-66.6515" y1="-486.2457" x2="-18.02" y2="-486.2457">
			<stop  offset="0" style="stop-color:#009433"/>
			<stop  offset="0.1198" style="stop-color:#21A338"/>
			<stop  offset="0.3459" style="stop-color:#5ABB42"/>
			<stop  offset="0.5549" style="stop-color:#88CF49"/>
			<stop  offset="0.7402" style="stop-color:#A8DD4F"/>
			<stop  offset="0.8949" style="stop-color:#BCE652"/>
			<stop  offset="1" style="stop-color:#C3E953"/>
		</linearGradient>
		<path class="st1" d="M-20.8-520.8l-0.5-2.5c-0.1-0.2-0.1-0.5-0.2-0.7l-3.5-8.3c-0.3-0.9-1.4-0.8-1.7,0.1c0,0.1,0,0.2,0,0.4
			l0.8,8.4l-0.6-0.5c-0.5-0.5-0.9-1.1-1.2-1.8l-2.2-4.9c-0.1-0.2-0.2-0.3-0.3-0.5l-3.4-5.7c-0.8-1.4-2.1-2.3-3.6-2.7
			c-0.8-0.2-1.3,0.8-0.9,1.5l0.7,1.2c0.1,0.3,0.3,0.5,0.4,0.8l5.2,13.1c0.3,0.8,0.5,1.6,0.6,2.5l0.2,1.4c0.1,1-0.8,1.7-1.6,1.3
			l-0.1,0c-0.6-0.3-1.1-0.8-1.5-1.5l-1.1-2.1l-8.2-14.4c-0.7-1.3-1.7-2.3-2.9-3l-0.7-0.4c-0.6-0.4-1.3,0.1-1.3,0.9v0.1
			c0,1.2,0.3,2.5,0.8,3.6l9.5,19.5c0.1,0.1,0.1,0.3,0.1,0.5v1.6c0,0.9-0.9,1.6-1.6,1.2l-0.6-0.3c-0.2-0.1-0.3-0.2-0.4-0.4l-7.3-13
			c-0.1-0.1-0.2-0.2-0.2-0.3l-1.3-1.1c-0.6-0.5-1.5,0.1-1.4,1c0.1,0.8,0.2,1.7,0.3,2.2c0.2,0.9,2.9,11.3,6.2,15.7
			c2.6,3.5,1.2,4.8-2,2.5c-1.7-1.3-3.9-1.5-3.6,0.3c0.1,0.7,2.9,5.3,5.8,10.1c4.5,7.6,7.1,20.8,7.1,29.6c0,16.1-9.7,23.3-12,25.4
			c-7.8,7.2-17.8,4-17.6,3.6C-5.5-413.2-18.4-510.5-20.8-520.8z"/>
		<linearGradient id="SVGID_2_" gradientUnits="userSpaceOnUse" x1="-96.7243" y1="-469.835" x2="-14.1673" y2="-469.835">
			<stop  offset="0" style="stop-color:#00ACBF"/>
			<stop  offset="0.1983" style="stop-color:#03ADBD"/>
			<stop  offset="0.345" style="stop-color:#0CB0B8"/>
			<stop  offset="0.4753" style="stop-color:#1CB5AF"/>
			<stop  offset="0.5959" style="stop-color:#33BCA3"/>
			<stop  offset="0.7099" style="stop-color:#50C592"/>
			<stop  offset="0.819" style="stop-color:#74D07F"/>
			<stop  offset="0.9222" style="stop-color:#9EDD67"/>
			<stop  offset="1" style="stop-color:#C3E953"/>
		</linearGradient>
		<path class="st2" d="M-96.5-462.4c0,0,5.5,12.8,16.6,20c13.7,8.8,34.8,10.5,51.5-13c3.6-5.1,16.2-30.4,6.1-70.3
			c0,0,20.7,53-3.8,92.6C-40.4-410-100.7-396.6-96.5-462.4z"/>
		
			<linearGradient id="SVGID_3_" gradientUnits="userSpaceOnUse" x1="-104.6617" y1="-474.0892" x2="-170.7995" y2="-359.5352" gradientTransform="matrix(0.9951 9.866261e-002 -9.866261e-002 0.9951 20.0979 -55.47)">
			<stop  offset="0" style="stop-color:#E93400"/>
			<stop  offset="0.5198" style="stop-color:#D5A038"/>
			<stop  offset="1" style="stop-color:#C4FF6A"/>
		</linearGradient>
		<path class="st3" d="M-87.8-449.6c-2.8-11.5-3.8-27.1,0-44.7c2.2-10.2,4.5-17.9,5.8-25.6c0.5-1.7,5.3-11.1,8-15.8
			c0.8-1.5-2-3-3.3-2.2l-4.1,3.5l-3.3,2.5c-1.2,0.8-2.6-0.6-2.1-2c0.8-2,3.1-6.1,3.8-7.5c0.8-1.4,5.5-10.6,7.5-15.5
			c0.7-1.7-1.3-3.2-2.4-1.7c-3.1,4-9.2,13.9-9.6,14.8c-0.2,0.6-0.7,1.3-1.3,2.1c-1,1.2-2.7,0.3-2.5-1.3c0.3-2.2,1.2-4.9,1.7-5.8
			c0.9-1.8,6.8-15.7,7.3-16.7c0,0,0-0.1,0-0.1l0.8-2.2c0.6-1.5-2-2.9-3.1-1.9l-1.2,1.4c-0.2,0.2-1.1,1.4-1.2,1.6l-9.3,19.6
			c-0.2,0.4-1.4,2.1-1.7,2.3l-0.8,0.5c-0.4,0.3-0.9-0.1-0.8-0.7l1.4-5.2c0,0,0-0.1,0-0.1l5.5-14.5c0-0.1,0.1-0.4,0.1-0.5l0.1-1
			c0.2-1.2-1.1-2-1.9-1.2l-0.6,0.5c-0.1,0.1-0.2,0.2-0.3,0.3c-1.1,1.8-8.7,16.5-8.9,17.2c-0.5,1.2-1.7,4.5-3.4,5
			c-0.2,0.1-0.9,0-1.1-0.3c-0.9-0.7-0.5-1.9-0.2-2.5l3.6-6.4l1.4-2.3c0.3-1.6-1.9-2.2-2.9-1c-2,2.4-6.4,7.2-7.8,11.2
			c0,0-30.1,73.5,0.7,114.2c16.5,21.8,58.4,23.4,79.7,7C-43.6-417.4-79.9-417.2-87.8-449.6z"/>
		<linearGradient id="SVGID_4_" gradientUnits="userSpaceOnUse" x1="-28.431" y1="-443.2428" x2="-127.7346" y2="-443.2428">
			<stop  offset="0" style="stop-color:#E93400"/>
			<stop  offset="4.448855e-002" style="stop-color:#E74006"/>
			<stop  offset="0.3032" style="stop-color:#DB8329"/>
			<stop  offset="0.5373" style="stop-color:#D1B945"/>
			<stop  offset="0.7387" style="stop-color:#CADF59"/>
			<stop  offset="0.8997" style="stop-color:#C6F666"/>
			<stop  offset="1" style="stop-color:#C4FF6A"/>
		</linearGradient>
		<path class="st4" d="M-127.7-473.3c0,0,10.1,39.9,38.3,51c30.5,12,49.8,3.1,61-7.6c0,0-28.1,30.8-72.4,8.7
			C-118.9-430.2-126.2-446.2-127.7-473.3z"/>
	</g>
	<g class="st0">
		<g class="st5">
			<linearGradient id="SVGID_5_" gradientUnits="userSpaceOnUse" x1="-234.7366" y1="-225.4571" x2="-138.5023" y2="-225.4571">
				<stop  offset="0" style="stop-color:#009433"/>
				<stop  offset="0.1198" style="stop-color:#21A338"/>
				<stop  offset="0.3459" style="stop-color:#5ABB42"/>
				<stop  offset="0.5549" style="stop-color:#88CF49"/>
				<stop  offset="0.7402" style="stop-color:#A8DD4F"/>
				<stop  offset="0.8949" style="stop-color:#BCE652"/>
				<stop  offset="1" style="stop-color:#C3E953"/>
			</linearGradient>
			<path class="st6" d="M-144-293.8l-1-5c-0.1-0.5-0.2-0.9-0.4-1.4l-6.9-16.4c-0.6-1.7-2.9-1.6-3.3,0.2c-0.1,0.2-0.1,0.5-0.1,0.7
				l1.5,16.5l-1.2-1.1c-0.9-1-1.7-2.2-2.3-3.5l-4.4-9.6c-0.2-0.3-0.3-0.6-0.5-1l-6.8-11.3c-1.6-2.7-4.2-4.6-7-5.3
				c-1.5-0.3-2.7,1.5-1.8,3l1.4,2.4c0.3,0.5,0.5,1,0.8,1.6l10.3,26c0.6,1.6,1,3.2,1.3,4.9l0.3,2.9c0.2,1.9-1.5,3.4-3.1,2.6l-0.2-0.1
				c-1.2-0.6-2.3-1.6-2.9-2.9l-2.2-4.2l-16.2-28.5c-1.4-2.5-3.4-4.6-5.7-6l-1.4-0.9c-1.2-0.7-2.6,0.2-2.6,1.7v0.2
				c0,2.5,0.5,4.9,1.6,7l18.8,38.6c0.1,0.3,0.2,0.6,0.2,0.9v3.1c0,1.8-1.7,3.1-3.2,2.3l-1.3-0.6c-0.3-0.2-0.6-0.4-0.8-0.8
				l-14.4-25.8c-0.2-0.2-0.3-0.4-0.5-0.6l-2.7-2.1c-1.3-1-3,0.2-2.8,1.9c0.2,1.7,0.5,3.4,0.7,4.4c0.4,1.8,5.8,22.3,12.4,31
				c5.2,6.9,2.4,9.5-3.9,4.9c-3.4-2.5-7.8-3-7.2,0.6c0.2,1.4,5.7,10.5,11.4,20.1c9,14.9,14.1,41.2,14.1,58.6
				c0,31.9-19.3,46.1-23.8,50.3c-15.4,14.3-35.2,7.8-34.9,7.2C-113.8-81-139.2-273.5-144-293.8z"/>
			<linearGradient id="SVGID_6_" gradientUnits="userSpaceOnUse" x1="-294.2461" y1="-192.9827" x2="-130.8783" y2="-192.9827">
				<stop  offset="0" style="stop-color:#00ACBF"/>
				<stop  offset="0.1983" style="stop-color:#03ADBD"/>
				<stop  offset="0.345" style="stop-color:#0CB0B8"/>
				<stop  offset="0.4753" style="stop-color:#1CB5AF"/>
				<stop  offset="0.5959" style="stop-color:#33BCA3"/>
				<stop  offset="0.7099" style="stop-color:#50C592"/>
				<stop  offset="0.819" style="stop-color:#74D07F"/>
				<stop  offset="0.9222" style="stop-color:#9EDD67"/>
				<stop  offset="1" style="stop-color:#C3E953"/>
			</linearGradient>
			<path class="st7" d="M-293.8-178.2c0,0,10.8,25.4,32.9,39.6c27.1,17.4,68.8,20.8,101.8-25.6c7.2-10.1,32-60.1,12.1-139
				c0,0,40.9,104.9-7.6,183.2C-182.8-74.5-302.1-48-293.8-178.2z"/>
			
				<linearGradient id="SVGID_7_" gradientUnits="userSpaceOnUse" x1="-222.5419" y1="-250.8218" x2="-353.4185" y2="-24.1368" gradientTransform="matrix(0.9951 9.866261e-002 -9.866261e-002 0.9951 20.0979 -55.47)">
				<stop  offset="0" style="stop-color:#E93400"/>
				<stop  offset="0.5198" style="stop-color:#D5A038"/>
				<stop  offset="1" style="stop-color:#C4FF6A"/>
			</linearGradient>
			<path class="st8" d="M-276.6-152.9c-5.5-22.8-7.6-53.6-0.1-88.5c4.4-20.2,8.8-35.5,11.5-50.7c0.9-3.5,10.6-22.1,15.7-31.3
				c1.6-2.9-3.9-6-6.5-4.3l-8,6.9l-6.5,5c-2.4,1.5-5.2-1.2-4.1-4c1.5-4,6-12.1,7.6-14.8c1.6-2.8,10.9-21,14.9-30.7
				c1.4-3.4-2.6-6.3-4.8-3.4c-6.1,7.9-18.3,27.4-19,29.3c-0.4,1.2-1.4,2.7-2.6,4.1c-1.9,2.4-5.4,0.5-5-2.6c0.5-4.4,2.4-9.6,3.3-11.5
				c1.8-3.7,13.5-31.1,14.4-33.1c0-0.1,0.1-0.1,0.1-0.2l1.6-4.4c1.1-3-3.9-5.7-6.2-3.8l-2.5,2.7c-0.4,0.3-2.2,2.8-2.4,3.2
				l-18.5,38.8c-0.3,0.7-2.7,4.2-3.3,4.5l-1.6,1c-0.8,0.5-1.8-0.3-1.7-1.3l2.8-10.2c0-0.1,0.1-0.2,0.1-0.3l11-28.7
				c0.1-0.3,0.2-0.8,0.3-1l0.3-1.9c0.3-2.3-2.1-3.9-3.7-2.4l-1.1,1c-0.2,0.2-0.4,0.4-0.6,0.7c-2.2,3.6-17.2,32.6-17.7,34
				c-0.9,2.4-3.4,8.9-6.7,9.8c-0.4,0.1-1.7-0.1-2.2-0.5c-1.7-1.5-1-3.8-0.4-5l7.2-12.6l2.7-4.6c0.7-3.2-3.7-4.4-5.7-2
				c-3.9,4.7-12.6,14.3-15.4,22.2c0,0-59.6,145.4,1.4,226c32.7,43.2,115.5,46.4,157.7,13.8C-189.2-89.3-261-88.9-276.6-152.9z"/>
			<linearGradient id="SVGID_8_" gradientUnits="userSpaceOnUse" x1="-159.1042" y1="-140.3607" x2="-355.6109" y2="-140.3607">
				<stop  offset="0" style="stop-color:#E93400"/>
				<stop  offset="4.448855e-002" style="stop-color:#E74006"/>
				<stop  offset="0.3032" style="stop-color:#DB8329"/>
				<stop  offset="0.5373" style="stop-color:#D1B945"/>
				<stop  offset="0.7387" style="stop-color:#CADF59"/>
				<stop  offset="0.8997" style="stop-color:#C6F666"/>
				<stop  offset="1" style="stop-color:#C4FF6A"/>
			</linearGradient>
			<path class="st9" d="M-355.6-199.8c0,0,20,78.9,75.7,100.9c60.3,23.8,98.6,6.2,120.8-15c0,0-55.6,60.9-143.3,17.2
				C-338.2-114.6-352.6-146.2-355.6-199.8z"/>
		</g>
		<g class="st5">
			<circle class="st10" cx="-222" cy="237.1" r="156.5"/>
			<path class="st11" d="M-256.2,386.5V270c0-3.8-2-7.2-5.3-9.1l-60.7-33.8l0,0c-7.3-0.2-12.4,7.1-9.7,13.9v0
				c0.1,0.2,0.3,0.4,0.5,0.6c0,0,50.6,29.4,50.7,29.8c4.5,12.4-2.6,20.7-14.6,17.1c-0.6-0.2-48.3-29-48.3-29s-10.1-7.1-11.8-17
				c-1.4-7.9-0.2-13,2.4-18.8l5.3-8.9l5-4.5c7.7-4.4,19.1-5.8,27.7-3.3l10.5,5.1L-242,249c3.4,2,5.5,5.7,5.5,9.6V393v23.4H-259
				L-256.2,386.5z"/>
			<path class="st11" d="M-191,386.5V270c0-3.8,2-7.2,5.3-9.1l60.7-33.8h0c7.3-0.2,12.4,7.1,9.7,13.9l0,0c-0.1,0.2-0.3,0.4-0.5,0.6
				c0,0-50.6,29.4-50.7,29.8c-4.5,12.4,2.6,20.7,14.6,17.1c0.6-0.2,48.3-29,48.3-29s10.1-7.1,11.8-17c1.4-7.9,0.2-13-2.4-18.8
				l-5.3-8.9l-5-4.5c-7.7-4.4-19.1-5.8-27.7-3.3l-10.5,5.1l-62.6,36.9c-3.4,2-5.5,5.7-5.5,9.6V393v23.4h22.5L-191,386.5z"/>
			<path class="st11" d="M-131.9,154.9l-4.6-7.7l-4.3-3.9c-6.7-3.8-16.6-5-24-2.9l-9.1,4.4l-50.2,29.6l-50.2-29.6l-9.1-4.4
				c-7.4-2.1-17.3-1-24,2.9l-4.3,3.9l-4.6,7.7c-2.3,5-3.2,9.4-2.1,16.3c1.5,8.6,10.2,14.7,10.2,14.7s41.3,25,41.8,25.1
				c10.4,3.1,16.5-4.1,12.6-14.8c-0.1-0.4-43.9-25.8-43.9-25.8c-0.2-0.1-0.3-0.3-0.4-0.5c-2.4-5.9,2.1-12.2,8.4-12h0l52.6,29.3
				c1.9,1.1,3.4,2.8,4.1,4.9v17.2v21.3l8.8,7.1l8.8-7.1v-21.3v-17.2c0.7-2,2.1-3.8,4.1-4.9l52.6-29.3h0c6.3-0.2,10.7,6.2,8.4,12
				c-0.1,0.2-0.2,0.4-0.4,0.5c0,0-43.8,25.4-43.9,25.8c-3.9,10.7,2.2,17.9,12.6,14.8c0.5-0.1,41.8-25.1,41.8-25.1s8.7-6.1,10.2-14.7
				C-128.7,164.3-129.7,159.9-131.9,154.9z"/>
		</g>
		<text transform="matrix(1 0 0 1 -344.8526 -29.8661)" class="st5" style="font-family:'MyriadPro-Bold'; font-size:34.3126px;">G R O  F R E S H</text>
	</g>
	<g class="st0">
		<g class="st5">
			<path class="st12" d="M-564.8-412h91c8.8,0,16,7,16.3,15.8l3.2,105.1c0.2,5.3-4.1,9.6-9.3,9.6l0,0l-4.5-114
				c-0.1-3.5-3-6.3-6.5-6.3l-89.9-0.2c-3.6,0-6.6,2.9-6.6,6.5l-1.1,97.8c0,3.4,2.7,6.3,6.2,6.3h80.2l9.8,10h-91.9
				c-8,0-14.4-6.4-14.4-14.4v-98.6C-582.3-404.2-574.4-412-564.8-412z"/>
			<path class="st12" d="M-517.3-456h-0.2h-1.6h-0.2c-14.1,0-25.6,9.3-25.6,24.6v0v37.1c0,2.9,2.2,5.3,4.9,5.3
				c2.9,0,5.2-2.5,5.2-5.6v-35c0-8.8,6.5-15.8,14.6-15.8h1.1h1.6h1.1c8,0,14.6,7.1,14.6,15.8v35c0,3.1,2.3,5.6,5.2,5.6
				c2.7,0,4.9-2.4,4.9-5.3v-37.1v0C-491.7-446.8-503.2-456-517.3-456z"/>
			<path class="st12" d="M-476-281.5c0,0,6.8-77.9-73.3-72.8c-13,0.8-19.7,5.8-18.3,9.9c6.1,18.6,37.6,33.9,62.3,23.2
				c0,0-17.7-17-29.7-16.3l14.2,11.7c0,0-30,0.6-36.3-17.6c2.1-3.4,63.8-17.9,71.4,51.9L-476-281.5z"/>
			<path class="st12" d="M-521.6-387.1c0,0-6,32.6,17.2,35.3C-504.4-351.8-491.1-373.7-521.6-387.1z M-507.1-357.4
				c-12.6-1.4-9.8-20.8-9.8-20.8C-500.4-370.9-507.1-357.4-507.1-357.4z"/>
		</g>
		
			<text transform="matrix(1 0 0 1 -440.2251 -336.8291)" style="display:inline;fill:#646B64; font-family:'Arial-BoldMT'; font-size:39.7268px;">Gro</text>
		
			<text transform="matrix(1 0 0 1 -341.5059 -336.8291)" style="display:inline;fill:#646B64; font-family:'Arial-BoldMT'; font-size:39.7268px;">Fresh</text>
		
			<text transform="matrix(1 0 0 1 -362.5059 -336.8291)" style="display:inline;fill:#646B64; font-family:'Arial-BoldMT'; font-size:39.7268px;">-</text>
	</g>
	<g class="st0">
		
			<text transform="matrix(1 0 0 1 -495.8312 387.3385)" style="display:inline;fill:#646B64; font-family:'Arial-BoldMT'; font-size:69.5486px; letter-spacing:1;">-</text>
		<g class="st5">
			<path class="st12" d="M-622.1,272h91c8.8,0,16,7,16.3,15.8l3.2,105.1c0.2,5.3-4.1,9.6-9.3,9.6l0,0l-4.5-114
				c-0.1-3.5-3-6.3-6.5-6.3l-89.9-0.2c-3.6,0-6.6,2.9-6.6,6.5l-1.1,97.8c0,3.4,2.7,6.3,6.2,6.3h80.2l9.8,10h-91.9
				c-8,0-14.4-6.4-14.4-14.4v-98.6C-639.6,279.9-631.8,272-622.1,272z"/>
			<path class="st12" d="M-574.7,228h-0.2h-1.6h-0.2c-14.1,0-25.6,9.3-25.6,24.6v0v37.1c0,2.9,2.2,5.3,4.9,5.3
				c2.9,0,5.2-2.5,5.2-5.6v-35c0-8.8,6.5-15.8,14.6-15.8h1.1h1.6h1.1c8,0,14.6,7.1,14.6,15.8v35c0,3.1,2.3,5.6,5.2,5.6
				c2.7,0,4.9-2.4,4.9-5.3v-37.1v0C-549.1,237.3-560.5,228-574.7,228z"/>
			<path class="st12" d="M-533.4,402.6c0,0,6.8-77.9-73.3-72.8c-13,0.8-19.7,5.8-18.3,9.9c6.1,18.6,37.6,33.9,62.3,23.2
				c0,0-17.7-17-29.7-16.3l14.2,11.7c0,0-30,0.6-36.3-17.6c2.1-3.4,63.8-17.9,71.4,51.9L-533.4,402.6z"/>
			<path class="st12" d="M-579,297c0,0-6,32.6,17.2,35.3C-561.8,332.3-548.5,310.3-579,297z M-564.5,326.7
				c-12.6-1.4-9.8-20.8-9.8-20.8C-557.7,313.2-564.5,326.7-564.5,326.7z"/>
		</g>
		
			<text transform="matrix(1 0 0 1 -495.8312 329.5651)" style="display:inline;fill:#646B64; font-family:'Arial-BoldMT'; font-size:69.5486px; letter-spacing:-3;">Gro</text>
		
			<text transform="matrix(1 0 0 1 -472.4635 390.8405)" style="display:inline;fill:#646B64; font-family:'Arial-BoldMT'; font-size:69.5486px; letter-spacing:-3;">Fresh</text>
		
			<text transform="matrix(1 0 0 1 -312.7277 610.4724)" style="display:inline;fill:#646B64; font-family:'Arial-BoldMT'; font-size:111.1343px; letter-spacing:1;">-</text>
		<g class="st5">
			<path class="st12" d="M-622.1,505.8h91c8.8,0,16,7,16.3,15.8l3.2,105.1c0.2,5.3-4.1,9.6-9.3,9.6l0,0l-4.5-114
				c-0.1-3.5-3-6.3-6.5-6.3l-89.9-0.2c-3.6,0-6.6,2.9-6.6,6.5l-1.1,97.8c0,3.4,2.7,6.3,6.2,6.3h80.2l9.8,10h-91.9
				c-8,0-14.4-6.4-14.4-14.4v-98.6C-639.6,513.7-631.8,505.8-622.1,505.8z"/>
			<path class="st12" d="M-574.7,461.9h-0.2h-1.6h-0.2c-14.1,0-25.6,9.3-25.6,24.6v0v37.1c0,2.9,2.2,5.3,4.9,5.3
				c2.9,0,5.2-2.5,5.2-5.6v-35c0-8.8,6.5-15.8,14.6-15.8h1.1h1.6h1.1c8,0,14.6,7.1,14.6,15.8v35c0,3.1,2.3,5.6,5.2,5.6
				c2.7,0,4.9-2.4,4.9-5.3v-37.1v0C-549.1,471.1-560.5,461.9-574.7,461.9z"/>
			<path class="st12" d="M-533.4,636.4c0,0,6.8-77.9-73.3-72.8c-13,0.8-19.7,5.8-18.3,9.9c6.1,18.6,37.6,33.9,62.3,23.2
				c0,0-17.7-17-29.7-16.3l14.2,11.7c0,0-30,0.6-36.3-17.6c2.1-3.4,63.8-17.9,71.4,51.9L-533.4,636.4z"/>
			<path class="st12" d="M-579,530.8c0,0-6,32.6,17.2,35.3C-561.8,566.1-548.5,544.2-579,530.8z M-564.5,560.5
				c-12.6-1.4-9.8-20.8-9.8-20.8C-557.7,547-564.5,560.5-564.5,560.5z"/>
		</g>
		
			<text transform="matrix(1 0 0 1 -485.9308 613.2712)" style="display:inline;fill:#646B64; font-family:'RaspoutineMedium'; font-size:111.1343px; letter-spacing:1;">Gro</text>
		
			<text transform="matrix(1 0 0 1 -275.3868 616.0681)" style="display:inline;fill:#646B64; font-family:'RaspoutineMedium'; font-size:111.1343px; letter-spacing:1;">Fresh</text>
	</g>
	<text transform="matrix(1 0 0 1 655.1611 190.9263)" class="st13 st14 st15 st16">-</text>
	<g class="st0">
		<path class="st17" d="M-456.4-190.9h325.6c31.5,0,57.3,25,58.2,56.5l11.3,376c0.6,18.9-14.6,34.4-33.4,34.4h0l-16.2-407.9
			c-0.5-12.5-10.8-22.4-23.3-22.4l-321.5-0.7c-12.9,0-23.4,10.4-23.6,23.3l-3.8,349.6c-0.1,12.3,9.8,22.4,22.2,22.4h286.9L-139,276
			h-328.5c-28.4,0-51.5-23.1-51.5-51.5v-352.8C-519-162.9-490.9-190.9-456.4-190.9z"/>
		<path class="st17" d="M-286.7-348.1h-0.6h-5.8h-0.6c-50.6,0-91.6,33.1-91.6,88.1v0v132.6c0,10.5,7.9,19.1,17.5,19.1
			c10.2,0,18.5-9,18.5-20.1v-125.2c0-31.3,23.3-56.7,52.1-56.7h4h5.8h4c28.8,0,52.1,25.4,52.1,56.7v125.2c0,11.1,8.3,20.1,18.5,20.1
			c9.7,0,17.5-8.5,17.5-19.1V-260v0C-195.1-315-236.1-348.1-286.7-348.1z"/>
		<path class="st17" d="M-139,276c0,0,24.2-278.4-262.1-260.2c-46.5,3-70.5,20.6-65.6,35.4c22,66.6,134.6,121.4,222.8,83.1
			c0,0-63.5-60.9-106.1-58.4l50.7,41.7c0,0-107.4,2.1-129.9-63c7.6-12,228-64,255.3,185.7L-139,276z"/>
		<path class="st17" d="M-302-101.5c0,0-21.3,116.7,61.3,126.1C-240.7,24.6-192.9-53.8-302-101.5z M-250.2,4.6
			c-45-5.1-35.2-74.2-35.2-74.2C-226.1-43.7-250.2,4.6-250.2,4.6z"/>
	</g>
	<text transform="matrix(1 0 0 1 41.0928 190.9331)" class="st13 st14 st15 st16">Gro</text>
	<text transform="matrix(1 0 0 1 835.9805 201.3531)" class="st13 st14 st15 st16">Fresh</text>
</g>
<g id="Layer_2">
	<g>
		<path class="st18" d="M208.3,37c11.4,0,21.3,2.9,29.5,8.6c7.5,6,11.7,14.5,12.4,25.6h-12.4c-3.6,0-6.5-1.7-8.8-5
			c-3.9-7.9-10.6-11.8-20.1-11.8c-16.8,0-25.5,10.6-25.6,32.1c-0.1,21.4,8.6,33,26.6,34.2c13.5,0,21.4-9.1,23.6-20.9h-11.8
			c-5.6,0-10.1-4.5-10.1-10.1v-6.2h39.9v52.8h-5c-4.7,0-9.4-3.2-9.8-7.6l-0.9-4.7c-6.9,8.9-14,13.8-28.1,13.8
			c-28.1,0-45-21.7-45-50.4C162.3,58.6,179.4,35.9,208.3,37z"/>
		<path class="st18" d="M261,97.2c0.6-24.6,13.7-36.8,39.1-36.8h2.7v19.9h-6.5c-10.6,0-16,5.6-16,16.7v39.6H261V97.2z"/>
		<path class="st18" d="M380.4,98.8c0,26.2-11.7,39.4-34.7,39.4c-23,0-34.5-13.2-34.5-39.4c0-26.5,11.5-39.6,34.5-39.6
			C368.7,59.2,380.4,72.3,380.4,98.8z M330.6,98.8c0.1,14.8,5.2,22.3,15,22.3s14.7-7.8,14.8-22.9c0-14.8-4.9-22.2-14.7-22.2
			C335.7,76,330.6,83.7,330.6,98.8z"/>
		<path class="st19" d="M396.4,103.2V83.6h37.2v19.6H396.4z"/>
		<path class="st18" d="M499.1,93.2h-27.8v43.3h-19.7V49.1c0-5.6,4.5-10.5,10.1-10.5h60.7v17h-51.1v21h38.3v6.5
			C509.6,88.7,504.7,93.2,499.1,93.2z"/>
		<path class="st18" d="M525.4,97.2c0.6-24.6,13.7-36.8,39.1-36.8h2.7v19.9h-6.5c-10.6,0-16,5.6-16,16.7v39.6h-19.4V97.2z"/>
		<path class="st18" d="M610.2,138.2c-23-0.7-34.5-14.1-34.5-40s11.7-38.9,34.8-39c24.2,0,35.5,14.8,34.1,44.6h-49.2
			c0.7,11.7,5.8,17.6,15.1,17.6c4.5,0,8.6-1.9,12.4-5.5c1.7-1.9,3.9-2.7,6.5-2.7h14.1C639.2,129.3,628.9,138.2,610.2,138.2z
			 M595.6,90.1h28.6c-1.2-10.1-5.9-15.3-14.1-15.3C602,74.9,597.1,80.1,595.6,90.1z"/>
		<path class="st18" d="M686.7,122.7c8.1,0,12.1-2.3,12.1-7.2c0-3.9-6.6-7-19.7-9.4c-16.8-3-25.5-10.5-25.6-22.4
			c0-16.4,13-24.2,30.4-24.5c9.8,0,17.6,2.2,23.3,6.5c5.6,4.5,8.6,10.6,9.1,18.6h-12.1c-4.5-0.1-7.3-1.7-8.5-4.7
			c-1.3-3.3-5.2-5.2-11.5-5.2c-7.5,0-11.2,2-11.2,5.9c0,3.9,4.9,6.9,14.8,8.8c13,2.6,21.4,5.9,25.6,9.8c3.6,3.7,5.3,8.3,5.3,13.5
			c0,18.7-14.7,25.6-34.8,25.6c-10.6,0-18.7-2.3-23.9-6.8c-5.8-4.3-8.6-10.9-8.6-19.7h19.6C671.3,119.8,677.4,122.7,686.7,122.7z"/>
		<path class="st18" d="M762.4,76.3c-11.4,0-16.3,9.5-16.3,21.2v39H727V38.6h9.6c6.3,0,9.5,3.3,9.5,9.6V71
			c9.8-11.2,21.7-14.4,36-9.4c10.6,3.9,15.7,14.1,15.1,30.6v44.2h-19v-39C778.2,84.7,773.3,76.3,762.4,76.3z"/>
	</g>
	<g>
		<path class="st12" d="M116,55.6c-0.3-8.8-7.3-15.6-16.1-15.6H17.2C7.7,39.9,0,47.7,0,57.2v89.6c0,7.9,6.5,14.4,14.4,14.4h83.5
			c0.5,0,1-0.3,1.2-0.8c0.2-0.5,0.1-1-0.3-1.4l-8.9-9.1c-0.2-0.3-0.6-0.4-0.9-0.4H16.1c-1.2,0-2.3-0.5-3.1-1.3
			c-0.8-0.8-1.3-1.9-1.2-3.1l1-88.8c0-2.5,2.1-4.6,4.7-4.6c0,0,0,0,0,0l81.7,0.2c2.5,0,4.5,2,4.6,4.4l4.1,103.6
			c0,0.7,0.6,1.3,1.3,1.3c2.7,0,5.2-1.1,7-3c1.9-1.9,2.8-4.4,2.8-7.1L116,55.6z"/>
		<path class="st12" d="M60.3,0h-1.7C44.1,0,34,9.7,34,23.7v33.7c0,3.4,2.6,6.2,5.8,6.2c3.3,0,6-2.9,6-6.4V25.3
			c0-7.2,5.3-13.1,11.9-13.1h3.5c6.6,0,11.9,5.9,11.9,13.1v31.8c0,3.5,2.7,6.4,6,6.4c3.2,0,5.8-2.8,5.8-6.2V23.7
			C84.9,9.7,74.8,0,60.3,0z"/>
		<path class="st12" d="M98.1,141.8c-1.6-9.5-5.7-22.9-15.8-33.3c-11.7-12-28.9-17.4-51.1-16c-8.3,0.5-14.7,2.9-17.1,6.5
			c-0.9,1.4-1.2,2.8-0.7,4.2c2.7,8.2,10.7,16,21.2,20.7c12.5,5.6,26,6,37.1,1.2c0.4-0.2,0.7-0.5,0.8-1c0.1-0.4-0.1-0.9-0.4-1.2
			c-0.7-0.6-16.7-15.9-27.9-15.2c-0.5,0-1,0.4-1.2,0.9c-0.2,0.5,0,1.1,0.4,1.4l9.9,8.1c-7.3-0.5-23-3-27.6-14.1
			c3.3-1.6,18.2-4.7,32.4,0.7c16.8,6.4,27,22.3,29.6,46.2c0,0.3,0.2,0.6,0.4,0.8l8.9,9.1c0.3,0.3,0.6,0.4,0.9,0.4
			c0.1,0,0.3,0,0.4-0.1c0.5-0.2,0.8-0.6,0.9-1.1C99.2,159.7,99.8,152,98.1,141.8z"/>
		<path class="st19" d="M75.1,79.8c-2.2-7-8.3-12.8-18.1-17c-0.4-0.2-0.8-0.1-1.1,0c-0.4,0.2-0.6,0.5-0.7,0.9
			c-0.1,0.7-3,16.9,4.3,26.7c2.9,4,7.1,6.3,12.5,6.9c0,0,0.1,0,0.1,0c0.5,0,0.9-0.2,1.1-0.6C73.3,96.4,77.9,88.7,75.1,79.8z
			 M68.8,89.5c-1.8-0.4-3.2-1.3-4.3-2.7c-2.8-3.6-2.9-9.7-2.7-12.7c3.6,1.9,6,4.4,7.1,7.3C70.1,84.7,69.3,88,68.8,89.5z"/>
	</g>
</g>
</svg>
